<svg width="68" height="80" viewBox="0 0 68 80" fill="none" xmlns="http://www.w3.org/2000/svg">
<path d="M35.144 70.3595C52.6618 70.3595 66.8627 56.1586 66.8627 38.6408C66.8627 21.1231 52.6618 6.92212 35.144 6.92212C17.6262 6.92212 3.42529 21.1231 3.42529 38.6408C3.42529 56.1586 17.6262 70.3595 35.144 70.3595Z" fill="#CFE8FF"/>
<path d="M35.7453 77.8251C35.5829 77.8251 35.4237 77.8206 35.2674 77.8109C31.1548 77.5569 14.8006 71.6693 10.3942 67.4972C9.75445 66.8917 9.46747 66.1298 9.27054 65.4463C8.98403 66.7978 8.8863 68.837 9.17227 69.3805C9.42477 69.8601 9.26933 70.395 9.05418 71.1354C8.77561 72.0949 8.36885 73.5045 8.5764 75.6981C11.4639 76.6081 30.3742 82.2622 44.5321 78.993C44.2281 77.9479 43.5485 76.3682 43.2539 75.7011C41.5686 76.6466 38.3264 77.825 35.7453 77.8251Z" fill="white"/>
<path d="M11.541 14.3563C11.1414 14.3696 9.92977 14.483 8.93499 14.5762C7.50225 14.7102 6.02087 14.8488 5.4958 14.8488C4.59751 14.8488 2.44502 15.7964 1.38304 16.6592C0.53113 17.3514 0.781169 19.4117 2.05172 22.1708C2.62881 23.424 2.86422 24.6358 3.11334 25.9188C3.40413 27.4159 3.70469 28.9639 4.5917 30.7098C4.65291 30.8303 10.7637 43.0639 11.1662 45.3401C11.3868 46.5881 11.0336 47.6204 10.7498 48.45C10.5598 49.0055 10.3957 49.4852 10.5178 49.757C10.9775 50.7816 10.8061 55.0158 10.6713 55.6284C10.6402 55.7701 10.6724 55.897 10.7579 55.9678C10.8343 56.0311 10.9409 56.0386 11.0584 55.9881C11.2527 55.9055 11.6041 55.1155 11.7954 54.331L11.8508 54.3445C11.7149 53.7114 11.5733 53.1396 11.4427 52.8448L12.1459 52.5335C12.4027 53.1134 12.6545 54.4033 12.8766 55.5411C12.9859 56.1009 13.0891 56.6298 13.1745 56.9756C13.3559 57.7088 14.8425 59.9864 15.4772 60.9588C15.6139 61.1681 15.7042 61.3067 15.765 61.4022C15.9499 61.3288 16.2392 61.1565 16.365 61.0128C16.3972 60.8092 16.2148 60.1167 15.9593 59.4706C15.5725 58.8917 15.2103 58.3501 15.071 58.1669C14.792 57.8001 14.4777 56.7777 14.0642 55.3733C13.9213 54.8878 13.7593 54.3376 13.7049 54.2313L14.3788 53.8615C14.4648 54.0173 14.5769 54.3917 14.802 55.1561C15.0511 56.0024 15.468 57.4188 15.683 57.7013C15.8392 57.9067 16.2009 58.4481 16.6199 59.0749C16.6274 59.086 16.6355 59.0983 16.6431 59.1095C16.6432 59.1098 16.6434 59.1099 16.6435 59.1102C17.2285 59.9858 18.1808 61.4094 18.3756 61.5855C18.4229 61.6247 18.5057 61.6157 18.5504 61.6065C18.696 61.577 18.9148 61.4494 19.0516 61.1869C19.1326 60.9636 18.7537 59.9624 18.2507 59.0737C17.8654 58.4427 17.3798 57.5522 16.7292 56.3262C16.0915 55.1246 15.4322 53.8818 15.1155 53.5328L15.6851 53.0162C16.0663 53.4363 16.6883 54.6085 17.4084 55.9658C17.8248 56.7506 18.4103 57.8539 18.8931 58.6513L18.8948 58.6504C18.9028 58.6642 18.912 58.6809 18.9204 58.6956C19.1978 59.1507 19.4396 59.5007 19.5917 59.6207C20.0873 59.4681 19.9979 58.7844 19.9735 58.643C19.9032 58.2323 18.8727 55.7661 18.2267 54.2772C17.5791 53.4502 16.9454 52.5831 16.4673 51.8628L17.1078 51.4374C18.3707 53.3399 20.3084 55.6957 20.9407 56.2086C20.998 56.0415 21.0239 55.664 20.7699 55.1967C20.3345 54.3955 18.3808 50.6632 18.3613 50.6257C18.3324 50.5707 18.3174 50.5095 18.3174 50.4473C18.3174 48.8747 17.577 45.9968 17.1345 44.2774L17.0297 43.8691C16.6809 42.5032 15.6323 42.3174 15.5878 42.31C15.4769 42.292 15.3759 42.2257 15.3175 42.1294C12.8184 38.0114 9.93565 24.3708 9.8142 23.7922C9.77684 23.6145 9.86902 23.435 10.035 23.3616C10.9075 22.9759 12.9408 23.5195 14.0129 23.8547C13.7086 21.8875 13.0994 18.0311 12.795 16.6734C12.4823 15.2798 11.7827 14.5673 11.541 14.3563Z" fill="white"/>
<path d="M64.5533 44.4124C63.9359 39.4299 61.9103 32.4238 61.7231 31.7831C59.862 28.7057 56.4862 25.806 54.4655 24.0705C53.1176 22.9126 52.6462 22.4952 52.5439 22.1645C52.3625 21.5787 52.0597 21.0595 51.9766 20.9228C49.2207 18.2418 41.187 15.6994 40.2041 15.3953C39.9794 15.4689 39.5666 15.5862 39.2134 15.5862C38.7161 15.5862 24.8861 14.3027 23.829 14.1045C23.3975 14.0232 22.7109 14.2406 22.0475 14.4505C21.1655 14.7295 20.2536 15.0176 19.5066 14.798C18.6964 14.5597 14.8328 14.4259 12.5943 14.375C12.9387 14.8333 13.3257 15.5261 13.5452 16.505C13.965 18.3757 14.9151 24.6594 14.9553 24.926C14.9678 25.0097 14.9526 25.0953 14.9117 25.1693C14.8756 25.2346 14.7916 25.3858 14.6878 25.5684L16.5975 24.7638C16.716 24.7137 16.8523 24.7262 16.96 24.7981C17.2365 24.9823 17.6995 25.2596 18.0443 25.4111C18.4562 24.3725 18.7355 23.6762 18.7782 23.5698L19.4919 23.8563C19.45 23.9607 15.3487 34.1861 14.2546 37.6684C14.7999 39.2751 15.3584 40.6674 15.8939 41.5937C16.3328 41.7198 17.3907 42.1743 17.7748 43.6786L17.8793 44.0856C18.3222 45.8071 19.0579 48.6665 19.0857 50.351C19.3763 50.9063 21.0489 54.0996 21.4456 54.8293C21.7617 55.4111 21.8344 56.0402 21.6399 56.5121C21.5305 56.7781 21.3433 56.9629 21.113 57.0319C21.0664 57.046 21.0196 57.0601 20.963 57.0601C20.7905 57.0601 20.5253 56.9269 19.9031 56.2673C20.3019 57.2385 20.6791 58.2064 20.7317 58.5129C20.8946 59.4647 20.4654 60.2279 19.6862 60.3874C19.8236 60.8389 19.8774 61.2656 19.7335 61.542C19.5114 61.9685 19.1262 62.2743 18.7031 62.3601C18.6265 62.3755 18.551 62.3832 18.4776 62.3832C18.254 62.3832 18.0483 62.3124 17.8832 62.1757C17.7516 62.0669 17.5155 61.7579 17.1079 61.1697C17.0871 61.283 17.0527 61.3805 16.9975 61.4534C16.7328 61.802 16.0531 62.2058 15.638 62.2058C15.6153 62.2058 15.5933 62.2045 15.5721 62.202C15.3953 62.181 15.2556 62.0811 15.1886 61.9279C15.1683 61.8919 15.0055 61.6428 14.8334 61.379C13.6946 59.6343 12.615 57.9156 12.4282 57.1598C12.3405 56.8056 12.2387 56.2863 12.1309 55.734C11.9363 56.1617 11.6791 56.5596 11.3596 56.6956C11.211 56.759 11.0585 56.7902 10.9102 56.7902C10.6754 56.7902 10.4509 56.7119 10.2671 56.5595C10.2302 56.5289 10.1962 56.4956 10.1644 56.4606C9.57894 57.4902 8.66315 59.0902 8.25686 59.666C7.39875 60.8994 7.47066 60.9837 8.15869 61.7887C8.49396 62.1812 8.95335 62.7187 9.4452 63.5584C9.65658 63.9192 9.77354 64.3581 9.89726 64.8229C10.0978 65.5754 10.305 66.3535 10.9232 66.9388C15.1304 70.9223 31.3857 76.8006 35.315 77.0434C38.4702 77.2376 42.6721 75.2656 43.5411 74.6205C43.3874 74.3173 43.2199 73.7838 42.9306 72.8206C42.6648 71.936 42.2201 70.4556 41.9614 70.2168C41.5225 69.8115 41.5938 68.8458 41.7695 67.031C41.8833 65.8575 42.0121 64.5275 41.8459 63.7382C41.5882 62.5135 41.6678 60.094 41.726 58.3273C41.7498 57.6008 41.7746 56.8497 41.7493 56.6978C41.6736 56.2435 42.2122 55.6632 45.1383 53.0459C46.1768 52.117 47.2505 51.1566 47.536 50.7819C48.1137 50.0239 50.5848 45.4611 51.8108 43.1545L52.4896 43.5153C52.3934 43.6966 50.8641 46.5719 49.6167 48.7932C50.0926 49.1354 50.9202 49.9089 52.3969 51.6566C53.1788 52.5554 53.4741 53.7083 53.5694 54.1978C55.6511 54.8297 63.1537 53.2429 66.4662 52.4356C66.0606 51.4192 65.0763 48.6348 64.5533 44.4124Z" fill="white"/>
<path d="M13.5011 26.0527C13.6511 25.8304 13.9514 25.3113 14.175 24.9103C14.1669 24.857 14.1562 24.7865 14.1435 24.7038C13.4782 24.4825 12.6554 24.2564 11.9316 24.1201C12.3671 25.5198 13.1889 26.0061 13.5011 26.0527Z" fill="white"/>
<path d="M41.0613 9.98547C40.9164 9.99464 40.5285 10.0451 40.4873 10.3225C40.3824 11.0316 40.2951 12.7198 40.3351 12.9832C40.3693 13.2092 40.5588 14.1335 40.6851 14.7393C40.7597 14.763 40.8483 14.7914 40.9438 14.8222C40.893 13.788 40.8324 12.059 41.0613 9.98547Z" fill="white"/>
<path d="M52.5489 20.4068C52.5692 20.4269 52.5872 20.4492 52.6026 20.4735C52.6202 20.5011 53.0372 21.1583 53.2778 21.9364C53.279 21.9387 53.2816 21.942 53.283 21.9444C53.925 21.1152 55.5977 18.9188 56.0027 18.0277C56.1383 17.7294 56.3099 17.3345 56.494 16.9109C57.4327 14.7517 57.7039 14.2101 57.921 14.0334C58.0031 13.8955 58.1476 13.5476 58.3069 13.0597C58.228 13.1275 58.1392 13.202 58.0366 13.2874C57.7259 13.546 56.9985 14.1517 56.9589 14.3796C56.9446 14.7272 56.7379 15.1669 56.5192 15.6323C56.3324 16.0301 56.1205 16.4808 56.0914 16.7731C56.0362 17.3258 55.76 17.8569 55.3707 18.1591C55.1539 18.3273 54.9168 18.4141 54.6772 18.4142C54.6273 18.4142 54.5772 18.4103 54.527 18.4028C54.1155 18.3401 53.7198 18.0624 53.4942 17.678C53.2944 17.3378 53.2546 16.9633 53.3819 16.6233L54.102 16.8933C54.045 17.0451 54.1007 17.1923 54.1572 17.2888C54.2652 17.4726 54.4602 17.6149 54.6427 17.6425C54.7392 17.6575 54.8353 17.6014 54.8993 17.5516C55.1207 17.3796 55.2922 17.0361 55.3262 16.6965C55.3686 16.273 55.5998 15.7811 55.8233 15.3052C55.9919 14.9467 56.1828 14.5404 56.1911 14.3424C56.2119 13.8432 56.7652 13.3454 57.5446 12.6964C57.7383 12.5351 58.0038 12.3142 58.0558 12.2404C58.1508 12.0926 58.1414 12.0485 58.1412 12.0481C58.141 12.0472 58.1048 11.9516 57.802 11.8186C57.5461 11.732 56.4928 12.5312 55.5096 13.6829L54.9247 13.1839C55.5718 12.4251 57.177 10.7032 58.1114 11.1146C58.386 11.2353 58.5866 11.3747 58.719 11.5359C59.1356 9.64361 59.3512 7.11161 58.34 5.40478C56.4066 2.14092 54.7878 0.619369 50.8194 0.781192C46.2418 0.971177 43.5316 2.79796 42.5336 6.36613C41.5223 9.9824 41.6361 13.2688 41.7141 14.8355C42.1579 14.377 42.9385 13.6269 43.6889 13.1841L44.0797 13.8464C43.4493 14.2185 42.7682 14.8604 42.3441 15.2916C44.9475 16.1943 49.4297 17.9154 51.8495 19.8011C52.0836 19.4039 52.2992 18.7404 52.3967 18.3414L53.1439 18.5235C53.1121 18.6541 52.854 19.6765 52.4395 20.3048C52.4755 20.3388 52.5144 20.3727 52.5489 20.4068Z" fill="white"/>
<path d="M62.361 58.287C62.2774 57.8608 62.1988 57.4584 62.1417 57.0375C62.0054 56.0322 61.9665 54.8323 61.9554 54.214C59.578 54.6781 56.8825 55.1038 54.9894 55.1039C54.6473 55.1039 54.3333 55.089 54.0503 55.0589C54.2468 55.935 54.5642 57.791 54.4184 60.1819C54.2438 63.0486 55.2731 69.9739 56.6058 73.4009C57.193 74.9111 57.4729 76.8574 57.5712 77.6797C58.3475 77.763 60.6067 77.9795 61.7189 77.8126C61.875 75.6732 62.7259 63.9373 62.747 61.8989C62.7631 60.3404 62.5495 59.2495 62.361 58.287Z" fill="white"/>
<path d="M65.316 44.3185C64.664 39.0561 62.4687 31.5938 62.4465 31.5189C62.4373 31.488 62.4242 31.4581 62.4075 31.4301C60.4878 28.2307 57.0315 25.2617 54.9663 23.4879C54.5595 23.1384 54.1464 22.7833 53.829 22.4968C54.4339 21.719 56.2454 19.3537 56.7028 18.3471C56.8398 18.0458 57.0132 17.6467 57.1993 17.2187C57.5753 16.354 58.1958 14.9265 58.4006 14.6432C58.5149 14.5683 58.667 14.3597 58.9592 13.518C59.2728 12.6152 60.7485 7.96269 59.0017 5.01402C56.9539 1.55699 55.1239 -0.168429 50.7876 0.0142327C45.8344 0.219616 42.8923 2.23001 41.7933 6.16011C41.4712 7.31178 41.2602 8.42869 41.1239 9.47071L41.1289 9.21596C40.6975 9.20526 39.8462 9.40462 39.7266 10.2115C39.6303 10.8623 39.5118 12.6863 39.5747 13.1003C39.6104 13.3342 39.7809 14.1674 39.8887 14.6877C39.6253 14.7687 39.3772 14.818 39.2148 14.818C38.6256 14.808 25.0064 13.5437 23.9707 13.3494C23.3487 13.2334 22.604 13.4684 21.8152 13.7181C21.0432 13.9621 20.2448 14.2148 19.7233 14.0609C18.4931 13.6991 11.9607 13.5931 11.6833 13.5887V13.589C11.3983 13.5777 10.4202 13.6654 8.8632 13.811C7.51398 13.9373 5.98492 14.0804 5.49571 14.0804C4.42696 14.0804 2.10644 15.081 0.898032 16.063C-0.277905 17.0183 -0.116275 19.3019 1.35328 22.4931C1.8915 23.6621 2.11828 24.8298 2.35838 26.0659C2.65913 27.6149 2.97019 29.2168 3.90602 31.0588C5.14034 33.4882 10.0849 43.6423 10.4088 45.4747C10.595 46.5273 10.2907 47.4169 10.0222 48.2016C9.7795 48.9111 9.57 49.5238 9.8161 50.0723C10.1365 50.7865 10.0708 54.2997 9.94813 55.2876C9.89138 55.3851 9.78644 55.5697 9.64903 55.8116C9.13015 56.7249 8.05033 58.6255 7.62699 59.2253C6.52126 60.8146 6.70825 61.2758 7.57386 62.2888C7.90821 62.68 8.32421 63.1668 8.78152 63.9476C8.81714 64.0084 8.84968 64.076 8.8805 64.1478C8.29939 65.3421 7.96406 68.736 8.49203 69.7392C8.59978 69.9442 8.48076 70.354 8.31594 70.9215C7.99249 72.0351 7.50344 73.7183 7.8896 76.4513L8.65103 76.3435C8.61948 76.1203 8.5962 75.9072 8.5765 75.6986C8.36894 73.505 8.77571 72.0954 9.05428 71.1359C9.26941 70.3955 9.42485 69.8607 9.17237 69.381C8.88642 68.8375 8.98415 66.7983 9.27064 65.4468C9.46756 66.1304 9.75455 66.8922 10.3943 67.4977C14.8007 71.6698 31.1549 77.5574 35.2674 77.8114C35.4238 77.8211 35.583 77.8256 35.7454 77.8256C38.3265 77.8255 41.5687 76.6471 43.254 75.7016C43.5486 76.3687 44.2282 77.9484 44.5322 78.9935C44.573 79.1339 44.6071 79.2646 44.6325 79.3821L45.3842 79.2195C45.1415 78.0972 44.22 75.9792 43.9122 75.2881C44.1663 75.1031 44.3296 74.9397 44.3761 74.8133C44.4412 74.6359 44.3949 74.4505 44.2582 74.3313C44.1318 74.1482 43.8636 73.2552 43.6667 72.6C43.2011 71.0497 42.8671 70.0071 42.4896 69.6596C42.3107 69.4173 42.4455 68.0262 42.5347 67.1057C42.6595 65.8174 42.7887 64.485 42.5981 63.5804C42.3595 62.4465 42.4406 59.9833 42.4941 58.3532C42.5251 57.414 42.5403 56.9036 42.5172 56.6507C42.7444 56.2193 44.4871 54.6604 45.6508 53.6197C46.8134 52.5796 47.8176 51.6813 48.1474 51.2484C48.3538 50.9776 48.7584 50.302 49.2404 49.458C49.7935 49.8965 50.905 51.0832 51.813 52.1576C52.658 53.1293 52.8438 54.5153 52.8455 54.5286C52.862 54.6615 52.9467 54.7764 53.0689 54.8314C53.1154 54.8524 53.1659 54.8714 53.218 54.8898C53.3623 55.4473 53.8146 57.4527 53.6511 60.1355C53.4718 63.0759 54.5249 70.1721 55.8892 73.68C56.598 75.5028 56.8459 78.1159 56.8483 78.1419L57.6138 78.0714C57.6117 78.0474 57.5983 77.9059 57.5713 77.6802C57.4731 76.8579 57.1932 74.9116 56.6059 73.4014C55.2732 69.9744 54.2439 63.0491 54.4185 60.1825C54.5644 57.7915 54.2469 55.9355 54.0504 55.0594C54.3335 55.0895 54.6474 55.1044 54.9896 55.1044C56.8826 55.1043 59.5781 54.6786 61.9555 54.2145C61.9667 54.8328 62.0055 56.0327 62.1419 57.038C62.1989 57.4589 62.2776 57.8614 62.3611 58.2875C62.5496 59.25 62.7632 60.3409 62.7471 61.8994C62.726 63.9378 61.8751 75.6737 61.719 77.8131C61.7041 78.0176 61.6954 78.1365 61.6945 78.1487L62.4612 78.205C62.5034 77.6328 63.4927 64.1649 63.516 61.9073C63.5329 60.2703 63.3112 59.1385 63.1158 58.1398C63.0345 57.7249 62.9577 57.3331 62.9037 56.9347C62.7631 55.8982 62.7302 54.6035 62.7224 54.0615C64.877 53.6221 66.6431 53.1862 67.0887 53.0743C67.1996 53.0465 67.2924 52.9706 67.3418 52.8674C67.3911 52.7643 67.3921 52.6444 67.3442 52.5406C67.3303 52.5106 65.9554 49.479 65.316 44.3185ZM52.3968 18.3426C52.2993 18.7416 52.0837 19.4051 51.8497 19.8023C49.4298 17.9166 44.9476 16.1955 42.3442 15.2929C42.7683 14.8616 43.4494 14.2197 44.0798 13.8476L43.689 13.1853C42.9387 13.6282 42.1581 14.3783 41.7142 14.8367C41.6362 13.27 41.5224 9.98363 42.5337 6.36736C43.5317 2.79919 46.2419 0.972388 50.8195 0.782421C54.7879 0.620598 56.4067 2.14214 58.3401 5.40601C59.3513 7.11284 59.1357 9.64484 58.7191 11.5371C58.5868 11.376 58.3861 11.2365 58.1115 11.1158C57.1771 10.7045 55.5719 12.4263 54.9248 13.1851L55.5097 13.6841C56.4929 12.5324 57.5462 11.7332 57.8021 11.8198C58.1049 11.9529 58.1412 12.0484 58.1413 12.0494C58.1415 12.0498 58.1509 12.0939 58.0559 12.2416C58.0039 12.3154 57.7385 12.5363 57.5447 12.6976C56.7653 13.3466 56.212 13.8444 56.1912 14.3436C56.1829 14.5417 55.992 14.9479 55.8234 15.3065C55.5998 15.7824 55.3688 16.2742 55.3263 16.6977C55.2923 17.0373 55.1208 17.3809 54.8994 17.5528C54.8354 17.6026 54.7393 17.6587 54.6428 17.6437C54.4603 17.6161 54.2653 17.4738 54.1573 17.29C54.1008 17.1935 54.0451 17.0464 54.1021 16.8945L53.382 16.6245C53.2547 16.9645 53.2945 17.339 53.4943 17.6792C53.7199 18.0637 54.1157 18.3413 54.5272 18.404C54.5773 18.4115 54.6274 18.4155 54.6773 18.4155C54.9169 18.4153 55.154 18.3286 55.3708 18.1604C55.7602 17.8581 56.0363 17.327 56.0915 16.7743C56.1206 16.482 56.3325 16.0313 56.5193 15.6335C56.738 15.1681 56.9447 14.7285 56.959 14.3808C56.9986 14.1529 57.726 13.5473 58.0367 13.2886C58.1393 13.2032 58.2282 13.1287 58.307 13.0609C58.1477 13.5489 58.0032 13.8967 57.9211 14.0346C57.7041 14.2113 57.4328 14.7529 56.4941 16.9122C56.31 17.3357 56.1384 17.7306 56.0028 18.029C55.5978 18.9201 53.9251 21.1164 53.2831 21.9456C53.2817 21.9432 53.2791 21.9399 53.278 21.9377C53.0373 21.1595 52.6203 20.5023 52.6027 20.4747C52.5873 20.4505 52.5693 20.4281 52.549 20.408C52.5145 20.374 52.4756 20.3401 52.4395 20.3061C52.8541 19.6778 53.1121 18.6554 53.1439 18.5247L52.3968 18.3426ZM40.6851 14.7409C40.5587 14.1351 40.3693 13.2107 40.335 12.9848C40.2951 12.7214 40.3823 11.0332 40.4873 10.3241C40.5284 10.0466 40.9163 9.99621 41.0612 9.98704C40.8323 12.0606 40.8929 13.7895 40.9438 14.8237C40.8483 14.793 40.7596 14.7646 40.6851 14.7409ZM14.175 24.912C13.9514 25.313 13.651 25.832 13.501 26.0543C13.1888 26.0078 12.367 25.5214 11.9316 24.1218C12.6553 24.2581 13.4782 24.4841 14.1435 24.7055C14.1561 24.7882 14.1669 24.8587 14.175 24.912ZM16.7084 25.5519C16.9463 25.7023 17.3741 25.9585 17.7619 26.1245C16.616 29.0243 14.7951 33.694 13.8519 36.4386C12.3251 31.6072 10.9779 25.5381 10.6449 24.0007C10.7754 23.99 10.9308 23.9934 11.1013 24.0062C11.5327 25.7498 12.5211 26.594 13.2669 26.7859C13.5393 26.8558 13.7671 26.8327 13.9259 26.7242L16.7084 25.5519ZM10.0348 23.3621C9.86885 23.4355 9.77668 23.615 9.81405 23.7927C9.9355 24.3713 12.8183 38.0119 15.3173 42.1299C15.3757 42.2262 15.4767 42.2925 15.5876 42.3105C15.6321 42.3179 16.6808 42.5037 17.0296 43.8696L17.1343 44.2779C17.5768 45.9973 18.3172 48.8752 18.3172 50.4478C18.3172 50.51 18.3322 50.5712 18.3611 50.6262C18.3807 50.6637 20.3344 54.396 20.7697 55.1972C21.0237 55.6645 20.9978 56.042 20.9405 56.2091C20.3083 55.6962 18.3705 53.3404 17.1077 51.4379L16.4671 51.8633C16.9453 52.5836 17.5789 53.4507 18.2266 54.2776C18.8726 55.7666 19.9031 58.2328 19.9734 58.6435C19.9978 58.7849 20.0871 59.4686 19.5915 59.6212C19.4395 59.5012 19.1977 59.1512 18.9202 58.696C18.9119 58.6813 18.9026 58.6647 18.8947 58.6509L18.893 58.6518C18.4101 57.8544 17.8246 56.7511 17.4083 55.9663C16.6881 54.609 16.0662 53.4369 15.6849 53.0167L15.1153 53.5333C15.432 53.8823 16.0913 55.1251 16.729 56.3267C17.3796 57.5528 17.8653 58.4432 18.2505 59.0742C18.7535 59.9629 19.1324 60.9641 19.0515 61.1874C18.9146 61.4498 18.6959 61.5775 18.5502 61.607C18.5055 61.6162 18.4228 61.6252 18.3754 61.5859C18.1807 61.4099 17.2284 59.9863 16.6434 59.1107C16.6433 59.1105 16.6432 59.1102 16.6431 59.11C16.6355 59.0987 16.6272 59.0865 16.6198 59.0754C16.2008 58.4486 15.839 57.9072 15.6828 57.7018C15.4679 57.4193 15.0509 56.0029 14.8018 55.1566C14.5767 54.3922 14.4647 54.0178 14.3787 53.862L13.7047 54.2318C13.7592 54.3381 13.9212 54.8883 14.064 55.3738C14.4776 56.7782 14.7918 57.8006 15.0708 58.1674C15.2102 58.3506 15.5724 58.8922 15.9592 59.4711C16.2146 60.1172 16.397 60.8097 16.3648 61.0133C16.239 61.157 15.9497 61.3293 15.7648 61.4027C15.704 61.3071 15.6137 61.1686 15.477 60.9593C14.8423 59.9869 13.3557 57.7093 13.1744 56.9761C13.089 56.6303 12.9857 56.1014 12.8764 55.5416C12.6543 54.4038 12.4026 53.1139 12.1458 52.534L11.4426 52.8453C11.5732 53.1401 11.7147 53.7119 11.8507 54.345L11.7953 54.3315C11.604 55.116 11.2526 55.906 11.0583 55.9886C10.9408 56.0391 10.8341 56.0316 10.7577 55.9683C10.6723 55.8975 10.64 55.7706 10.6712 55.6289C10.806 55.0163 10.9774 50.7821 10.5176 49.7575C10.3956 49.4856 10.5597 49.006 10.7496 48.4505C11.0335 47.6209 11.3866 46.5886 11.166 45.3406C10.7635 43.0644 4.65276 30.8308 4.59155 30.7103C3.70452 28.9644 3.40398 27.4164 3.11319 25.9193C2.86407 24.6363 2.62866 23.4245 2.05157 22.1712C0.781019 19.4122 0.53096 17.3519 1.38289 16.6597C2.44487 15.7969 4.59738 14.8492 5.49565 14.8492C6.02072 14.8492 7.5021 14.7107 8.93484 14.5767C9.92962 14.4835 11.1412 14.3702 11.5409 14.3568C11.7825 14.5678 12.4822 15.2803 12.7947 16.6738C13.0992 18.0315 13.7084 21.8879 14.0127 23.8551C12.9407 23.52 10.9073 22.9763 10.0348 23.3621ZM53.5692 54.1985C53.4738 53.7089 53.1785 52.556 52.3966 51.6572C50.92 49.9096 50.0923 49.1361 49.6164 48.7938C50.8638 46.5725 52.3931 43.6972 52.4894 43.5159L51.8106 43.1551C50.5845 45.4617 48.1134 50.0245 47.5358 50.7825C47.2502 51.1572 46.1766 52.1177 45.1381 53.0465C42.212 55.6639 41.6734 56.2441 41.749 56.6984C41.7744 56.8503 41.7496 57.6014 41.7257 58.3279C41.6675 60.0947 41.5879 62.5141 41.8457 63.7389C42.0118 64.5281 41.883 65.8581 41.7693 67.0316C41.5936 68.8464 41.5222 69.8121 41.9611 70.2174C42.2198 70.4562 42.6646 71.9366 42.9304 72.8212C43.2197 73.7844 43.3871 74.318 43.5409 74.6211C42.6719 75.2662 38.4699 77.2383 35.3148 77.044C31.3854 76.8012 15.1301 70.9229 10.923 66.9395C10.3048 66.3541 10.0975 65.576 9.89701 64.8236C9.77329 64.3587 9.65634 63.9198 9.44495 63.559C8.9531 62.7193 8.49374 62.1818 8.15844 61.7893C7.47042 60.9843 7.39852 60.9 8.25662 59.6666C8.66291 59.0908 9.57869 57.4909 10.1642 56.4612C10.1959 56.4963 10.23 56.5295 10.2668 56.5601C10.4506 56.7125 10.6751 56.7908 10.91 56.7908C11.0583 56.7908 11.2107 56.7597 11.3594 56.6962C11.6788 56.5602 11.9361 56.1623 12.1307 55.7346C12.2385 56.2869 12.3403 56.8063 12.428 57.1604C12.6147 57.9162 13.6944 59.6349 14.8331 61.3796C15.0053 61.6434 15.168 61.8925 15.1883 61.9286C15.2553 62.0818 15.395 62.1816 15.5719 62.2027C15.5931 62.2051 15.615 62.2064 15.6378 62.2064C16.0528 62.2064 16.7326 61.8026 16.9973 61.454C17.0525 61.3812 17.0869 61.2837 17.1077 61.1703C17.5153 61.7585 17.7514 62.0675 17.883 62.1764C18.048 62.313 18.2538 62.3838 18.4773 62.3838C18.5507 62.3838 18.6262 62.3761 18.7028 62.3607C19.126 62.2749 19.5112 61.9691 19.7333 61.5426C19.8772 61.2662 19.8233 60.8395 19.686 60.388C20.4651 60.2285 20.8944 59.4654 20.7314 58.5136C20.6789 58.207 20.3016 57.2392 19.9028 56.2679C20.5251 56.9275 20.7903 57.0607 20.9627 57.0607C21.0194 57.0607 21.0662 57.0467 21.1127 57.0326C21.343 56.9635 21.5302 56.7788 21.6397 56.5127C21.8341 56.0408 21.7615 55.4117 21.4454 54.8299C21.0487 54.1002 19.376 50.907 19.0854 50.3517C19.0576 48.6672 18.3219 45.8077 17.8791 44.0862L17.7745 43.6792C17.3904 42.1749 16.3326 41.7204 15.8937 41.5943C15.3581 40.668 14.7997 39.2757 14.2544 37.669C15.3484 34.1868 19.4497 23.9613 19.4917 23.8569L18.7779 23.5704C18.7352 23.6769 18.4559 24.3732 18.0441 25.4117C17.6992 25.2602 17.2363 24.983 16.9598 24.7987C16.852 24.7269 16.7157 24.7143 16.5973 24.7644L14.6876 25.569C14.7913 25.3865 14.8753 25.2352 14.9115 25.1699C14.9524 25.0959 14.9676 25.0103 14.955 24.9266C14.9149 24.66 13.9648 18.3763 13.545 16.5056C13.3254 15.5268 12.9384 14.8339 12.5941 14.3757C14.8325 14.4265 18.6961 14.5603 19.5063 14.7986C20.2533 15.0182 21.1653 14.7301 22.0472 14.4511C22.7107 14.2412 23.3972 14.0238 23.8288 14.1051C24.8859 14.3034 38.7159 15.5869 39.2132 15.5869C39.5663 15.5869 39.9791 15.4695 40.2038 15.3959C41.1868 15.7001 49.2205 18.2425 51.9763 20.9234C52.0595 21.0601 52.3623 21.5794 52.5436 22.1651C52.646 22.4959 53.1173 22.9132 54.4652 24.0711C56.486 25.8066 59.8617 28.7063 61.7228 31.7837C61.91 32.4245 63.9356 39.4305 64.5531 44.413C65.0761 48.6354 66.0603 51.4198 66.466 52.4362C63.1535 53.2435 55.6509 54.8304 53.5692 54.1985Z" fill="black"/>
<path opacity="0.5" d="M16.0732 67.2677C24.5385 67.2677 31.4009 60.4053 31.4009 51.9401C31.4009 43.4748 24.5385 36.6124 16.0732 36.6124C7.60802 36.6124 0.745605 43.4748 0.745605 51.9401C0.745605 60.4053 7.60802 67.2677 16.0732 67.2677Z" fill="#FF0000"/>
</svg>
