<svg width="81" height="80" viewBox="0 0 81 80" fill="none" xmlns="http://www.w3.org/2000/svg">
<g clip-path="url(#clip0_16_280)">
<path d="M39.8169 72.83C56.2878 72.83 69.6401 59.4777 69.6401 43.0068C69.6401 26.5359 56.2878 13.1836 39.8169 13.1836C23.346 13.1836 9.99365 26.5359 9.99365 43.0068C9.99365 59.4777 23.346 72.83 39.8169 72.83Z" fill="#CFE8FF"/>
<path d="M48.6433 74.3099C48.5288 72.8666 49.6337 69.796 50.6085 67.0867C51.0324 65.9089 51.4327 64.7961 51.641 64.0525C52.4265 61.2472 56.324 45.8984 56.2647 44.0895C56.2173 42.6436 57.1316 40.4923 57.7992 38.9217C58.061 38.3056 58.2871 37.7738 58.3746 37.4676C58.6426 36.5294 58.1044 34.7897 57.6365 33.854C57.4499 33.4807 57.276 32.733 57.0746 31.8672C56.8796 31.0286 56.5586 29.6487 56.3189 29.3562C56.3165 29.3562 56.3141 29.3562 56.3117 29.3562C55.7964 29.3562 54.409 28.9838 52.9261 25.4475C51.9213 23.0514 49.2719 21.1379 48.4924 20.6133C48.0905 20.895 47.153 21.3266 45.165 21.3499C44.2032 21.3612 43.1105 21.325 42.0537 21.2897C40.3626 21.2334 38.4461 21.1698 38.0123 21.3777C37.6909 21.532 36.2061 22.7362 34.7701 23.9006C32.8093 25.4906 30.7818 27.1346 30.0203 27.5335C29.4125 27.852 28.3785 28.7241 27.3786 29.5677C26.4235 30.3734 25.5122 31.1421 24.8696 31.525C26.9738 35.2997 29.2941 37.6478 31.5013 39.6079C32.0218 39.4554 33.5073 38.0451 34.2437 37.3459C35.1064 36.5268 35.6098 36.056 35.9214 35.907C36.2124 35.7678 37.1375 35.0005 37.9538 34.3234C39.3644 33.1535 40.3233 32.3742 40.7824 32.2088L41.0274 32.8891C40.6531 33.0239 39.3597 34.0966 38.4154 34.8799C37.289 35.8142 36.58 36.3935 36.2334 36.5592C36.0095 36.6662 35.3359 37.3059 34.7415 37.8702C33.121 39.4088 32.0073 40.4119 31.3385 40.3401C31.3207 40.3382 31.3044 40.3309 31.2872 40.3265C30.6525 43.1151 27.832 55.2727 26.1802 58.5251C26.2222 58.9786 26.255 59.4093 26.2844 59.7963C26.3342 60.4529 26.3773 61.0199 26.4394 61.3651C26.5985 62.2482 26.9995 62.8706 27.7803 63.446C28.275 63.8106 28.485 64.7977 28.5985 65.7416C29.7679 66.3644 34.2128 67.429 36.6205 68.0055C37.4901 68.2136 38.0647 68.3512 38.2514 68.4105C39.1468 68.6954 42.7721 72.8193 43.3527 73.9223C43.685 74.5538 46.5254 75.3829 48.0289 74.9487C48.679 74.7603 48.6531 74.4331 48.6433 74.3099Z" fill="white"/>
<path d="M47.035 75.7847C45.3619 75.7847 43.1866 75.1595 42.7128 74.2591C42.0669 73.032 38.6038 69.3043 38.0311 69.0993C37.8705 69.0482 37.2445 68.8983 36.4519 68.7086C33.4094 67.9801 30.1178 67.1681 28.6547 66.5626C28.6157 66.8466 28.473 67.5484 28.0009 69.4153C27.9816 69.4917 27.9378 69.5597 27.8762 69.6089C27.6428 69.7957 27.3231 69.75 27.0414 69.7092C26.9876 69.7016 26.9144 69.691 26.8629 69.6868C26.5272 69.9531 25.6928 70.241 25.3189 70.1935C25.317 70.1935 25.3151 70.1934 25.313 70.1934C25.192 70.1934 24.833 70.3674 24.5933 70.4854C24.3807 71.1064 23.5617 73.6867 23.4858 76.749C25.6379 77.327 36.6845 80.0853 49.1265 79.4102C48.7775 78.0779 48.2647 76.3095 48.0803 75.6787C47.7753 75.7493 47.4202 75.7847 47.035 75.7847Z" fill="white"/>
<path d="M68.4214 4.8426C66.6854 2.83409 64.0622 -0.200488 56.7478 0.987252C50.6796 1.97306 51.6116 10.2198 52.1122 14.6502C52.2028 15.4521 52.2811 16.1444 52.2977 16.6358C52.3786 19.032 50.9298 20.3392 50.0903 20.8928C51.2587 21.8352 52.8314 23.3515 53.593 25.1679C54.5361 27.4169 55.4372 28.3032 55.9844 28.5531C56.2229 27.9184 56.8948 27.1897 57.5786 26.4882C57.7276 26.3354 57.8955 26.1631 57.9428 26.1001C58.0375 25.8985 58.2683 25.7947 58.6091 25.6413C58.8118 25.5503 59.3501 25.3081 59.3898 25.1641C59.4627 24.419 60.3346 24.0912 60.4338 24.0563C60.4909 24.036 60.5523 24.0305 60.6123 24.0406C60.7171 24.0577 63.1851 24.4628 63.7646 24.6077C64.1774 24.711 64.4865 24.7283 65.2977 24.1008C65.9468 23.5986 65.8349 22.8758 65.8298 22.8454C65.8134 22.7471 65.8381 22.6449 65.8984 22.5655C65.9588 22.4862 66.0489 22.4338 66.148 22.4234C66.3331 22.4022 67.0159 22.0333 67.193 21.8649C67.1919 21.7564 67.1257 21.5048 67.0422 21.2999C67.0029 21.2034 67.007 21.0945 67.0537 21.0013C67.1004 20.9081 67.185 20.8396 67.2858 20.8133C67.4291 20.776 67.6516 20.4707 67.6819 20.3155C67.4584 19.9909 67.5491 19.3878 67.6278 19.0422C67.655 18.9229 67.7409 18.8253 67.8558 18.7831C67.9706 18.7409 68.0993 18.7598 68.1973 18.8334C68.3243 18.9287 68.493 18.9552 68.6993 18.9116C69.0127 18.8457 69.2764 18.6477 69.3523 18.543C69.388 18.2818 69.1128 17.2568 68.9293 16.5733C68.8129 16.1393 68.6925 15.6906 68.6068 15.3084C68.3863 14.3247 69.0036 12.9656 69.4122 12.0663C69.5409 11.783 69.6867 11.4619 69.704 11.3588C69.8132 10.7029 70.047 6.7228 68.4531 4.87914L68.4214 4.8426ZM58.0817 11.3811C58.1407 11.5632 58.3975 11.9588 58.6241 12.3076C59.1221 13.0743 59.4259 13.5629 59.4005 13.9309C59.395 14.0105 59.5001 14.2091 59.7042 14.3604C59.8687 14.4822 60.0393 14.5314 60.1496 14.4894C60.3699 14.4051 60.3506 13.9428 60.334 13.833L61.0489 13.725C61.1122 14.1443 61.0484 14.9196 60.4077 15.1648C60.2977 15.2068 60.1814 15.2274 60.062 15.2274C59.8025 15.2274 59.5286 15.1298 59.2741 14.9415C58.888 14.6555 58.6546 14.2395 58.6793 13.8812C58.6684 13.7033 58.2611 13.0761 58.0178 12.7014C57.7305 12.2589 57.4822 11.8767 57.3939 11.6035C57.2677 11.2136 56.9224 9.52509 57.5372 8.38731C57.7949 7.91056 58.1829 7.59832 58.6904 7.45957C60.2649 7.02889 61.2388 8.26041 61.5336 8.97192L60.8661 9.24974C60.8408 9.19008 60.2303 7.78859 58.8813 8.15679C58.5672 8.24275 58.3356 8.43055 58.1733 8.73115C57.7259 9.55895 57.953 10.9832 58.0817 11.3811Z" fill="white"/>
<path d="M27.3515 64.028C26.4209 63.3421 25.9202 62.5603 25.728 61.4931C25.6592 61.1113 25.6149 60.5273 25.5636 59.8511C25.4687 58.6024 25.3389 56.8924 24.9715 55.4635C24.3829 53.1749 24.1585 48.5759 24.1984 47.8374C24.2431 47.0104 24.2136 42.7862 24.1609 42.4565C24.0813 42.0055 24.3486 41.419 24.403 41.306C24.4436 41.2214 24.5156 41.1561 24.6035 41.1237C25.6841 40.7247 28.3802 39.1919 29.3768 38.6174C27.7083 36.975 26.0208 34.9844 24.4419 32.2349C23.3878 33.0001 19.2141 36.0802 18.2563 37.5523C17.8535 38.1713 17.5232 38.5934 17.282 38.9016C16.8131 39.5003 16.7268 39.6267 16.7869 40.0577C16.8242 40.3253 16.9324 40.7846 17.0576 41.3164C17.3469 42.5447 17.7431 44.2269 17.7431 45.5068C17.7431 47.2915 19.0171 52.2617 19.5792 53.6266C19.6628 53.8299 19.7626 54.0684 19.8728 54.3316C20.566 55.9874 21.6134 58.4898 21.7835 59.662C21.9608 60.884 22.1041 63.1064 21.7722 64.2213C21.6187 64.7361 22.1376 66.2628 22.4475 67.175C22.7458 68.0524 22.8762 68.4508 22.8425 68.6979C22.8079 68.9521 22.7248 69.1406 22.658 69.2922C22.5879 69.4515 22.5648 69.5131 22.581 69.5778C22.6568 69.7665 23.3381 70.2355 23.6323 70.1298C23.8074 70.0668 24.0237 69.96 24.2329 69.8569C24.6912 69.6308 25.0881 69.4364 25.4088 69.476C25.5865 69.4968 26.2394 69.2598 26.4013 69.1341C26.5818 68.9126 26.8803 68.9553 27.1447 68.9934C27.2004 69.0015 27.2844 69.0135 27.3552 69.0194C27.6417 67.8765 27.9254 66.6653 27.9457 66.4406C27.9413 66.404 27.9358 66.3491 27.9291 66.279C27.7673 64.5715 27.4978 64.1357 27.3515 64.028Z" fill="white"/>
<path d="M68.9685 4.36969C67.2391 2.36911 64.3449 -0.980524 56.6318 0.273768C53.6955 0.750704 51.8922 2.78056 51.2723 6.30689C50.7668 9.18277 51.1441 12.5218 51.3937 14.7314C51.4826 15.5179 51.5594 16.1973 51.575 16.6601C51.6535 18.9802 50.1035 20.0791 49.4835 20.4246C49.0179 20.0817 48.6964 19.8812 48.6535 19.8548C48.4953 19.7573 48.2967 19.7858 48.1841 19.9339C48.1783 19.9406 47.5721 20.5986 45.1568 20.6268C44.2108 20.6381 43.1267 20.6018 42.0781 20.567C39.7314 20.4891 38.2646 20.4547 37.6998 20.726C37.321 20.9078 36.1668 21.8373 34.315 23.3389C32.4717 24.8336 30.3827 26.5276 29.6851 26.8931C29.0071 27.2481 27.9898 28.1065 26.9126 29.015C25.8552 29.9071 24.7617 30.8295 24.24 31.0382C24.1442 31.0766 24.0693 31.1539 24.0343 31.251C23.9992 31.3481 24.0073 31.4556 24.0565 31.5461C24.0664 31.5644 24.0765 31.5813 24.0863 31.5994C23.126 32.2926 18.7117 35.5269 17.6505 37.1581C17.2649 37.7507 16.9588 38.1418 16.7128 38.456C16.2316 39.0706 15.9665 39.4091 16.0709 40.1577C16.1129 40.4587 16.2194 40.9104 16.354 41.4823C16.6352 42.6762 17.0203 44.311 17.0203 45.5069C17.0203 47.4012 18.3165 52.4587 18.9108 53.9021C18.9949 54.1065 19.0952 54.3462 19.206 54.6108C19.8438 56.1344 20.9112 58.6844 21.0681 59.7659C21.2709 61.1632 21.3438 63.1272 21.0794 64.0149C20.8764 64.6966 21.2516 65.9023 21.7632 67.4078C21.9243 67.8815 22.1246 68.4711 22.1264 68.6003C22.1054 68.7538 22.0525 68.8739 21.9965 69.001C21.91 69.1976 21.8021 69.4424 21.8797 69.7533C21.9637 70.089 22.3777 70.44 22.7507 70.639C23.0308 70.7885 23.3035 70.8649 23.5465 70.8647C23.6047 70.8647 23.6611 70.8602 23.7156 70.8514C23.3699 71.9958 22.7887 74.3062 22.7582 76.9873L23.4811 76.9955C23.4821 76.9128 23.4842 76.8309 23.4862 76.7489C23.5621 73.6866 24.3811 71.1063 24.5937 70.4853C24.8334 70.3673 25.1924 70.1933 25.3134 70.1933C25.3154 70.1933 25.3174 70.1935 25.3192 70.1935C25.6932 70.2409 26.5275 69.953 26.8633 69.6867C26.9148 69.6909 26.988 69.7015 27.0418 69.7091C27.3234 69.7499 27.6432 69.7956 27.8766 69.6088C27.9381 69.5596 27.9819 69.4917 28.0012 69.4152C28.4734 67.5483 28.6161 66.8465 28.655 66.5625C30.1182 67.168 33.4098 67.98 36.4523 68.7085C37.2448 68.8982 37.8708 69.0481 38.0315 69.0993C38.6042 69.3042 42.0673 73.0319 42.7131 74.259C43.187 75.1594 45.3623 75.7846 47.0354 75.7846C47.4205 75.7846 47.7757 75.7492 48.0807 75.6786C48.265 76.3094 48.7779 78.0778 49.1269 79.4101C49.1817 79.6194 49.2327 79.8185 49.2775 80L49.9794 79.8267C49.6367 78.4378 48.9513 76.0793 48.7574 75.4167C49.3243 75.0692 49.3888 74.5627 49.3642 74.2527C49.262 72.9647 50.3859 69.8413 51.289 67.3315C51.7174 66.141 52.1221 65.0162 52.3374 64.2473C52.8461 62.4307 57.056 46.1541 56.9875 44.0659C56.9453 42.7793 57.8236 40.713 58.4648 39.2044C58.7471 38.54 58.9702 38.0154 59.0699 37.6663C59.4117 36.4697 58.7869 34.5375 58.2835 33.5306C58.1349 33.2337 57.954 32.4557 57.779 31.7034C57.3919 30.0393 57.1364 29.021 56.6931 28.7225C56.9367 28.1836 57.6987 27.4008 58.0964 26.9927C58.3769 26.7048 58.5042 26.5719 58.5684 26.4639C58.6344 26.4227 58.7892 26.3532 58.9057 26.3008C59.418 26.0702 60.0554 25.7836 60.1089 25.2371C60.1286 25.0368 60.4084 24.8558 60.5956 24.7706C61.072 24.8493 63.1016 25.1872 63.5891 25.3091C64.3394 25.4966 64.8823 25.3361 65.7401 24.6726C66.4243 24.1433 66.5522 23.4499 66.5614 23.0466C67.0183 22.8704 67.6696 22.4929 67.8308 22.2207C67.9659 21.9927 67.9185 21.6485 67.8214 21.332C68.0852 21.1288 68.2925 20.8079 68.3721 20.5264C68.464 20.2007 68.3618 20.003 68.2779 19.9039C68.263 19.8535 68.2609 19.7533 68.2693 19.6327C68.4497 19.6664 68.6443 19.6617 68.8481 19.6191C69.3203 19.5198 69.8131 19.2015 69.9944 18.8789C70.1815 18.5463 70.0424 17.9312 69.6276 16.3858C69.513 15.959 69.3946 15.5177 69.3122 15.1502C69.1447 14.4031 69.7018 13.1769 70.0703 12.3653C70.2766 11.9113 70.3857 11.6656 70.417 11.4776C70.5419 10.7285 70.798 6.48589 69.0001 4.40641L68.9685 4.36969ZM69.704 11.3588C69.6868 11.4619 69.5409 11.7829 69.4122 12.0662C69.0036 12.9656 68.3863 14.3247 68.6068 15.3084C68.6925 15.6905 68.8129 16.1392 68.9293 16.5732C69.1128 17.2567 69.388 18.2817 69.3523 18.5429C69.2764 18.6476 69.0127 18.8457 68.6993 18.9115C68.493 18.9551 68.3243 18.9286 68.1973 18.8333C68.0993 18.7597 67.9706 18.7408 67.8558 18.783C67.7409 18.8252 67.655 18.9228 67.6278 19.0421C67.5491 19.3877 67.4584 19.9909 67.6819 20.3155C67.6516 20.4706 67.4291 20.776 67.2859 20.8132C67.185 20.8395 67.1004 20.908 67.0537 21.0012C67.007 21.0944 67.0029 21.2033 67.0422 21.2998C67.1257 21.5048 67.1918 21.7563 67.193 21.8649C67.0159 22.0332 66.3331 22.4022 66.148 22.4233C66.0489 22.4337 65.9588 22.4862 65.8984 22.5654C65.8381 22.6449 65.8134 22.7471 65.8298 22.8454C65.8348 22.8757 65.9468 23.5985 65.2977 24.1007C64.4865 24.7282 64.1774 24.7109 63.7646 24.6076C63.1851 24.4627 60.7171 24.0576 60.6123 24.0405C60.5523 24.0304 60.4909 24.0359 60.4338 24.0562C60.3346 24.0912 59.4627 24.4189 59.3898 25.164C59.3501 25.308 58.8118 25.5502 58.6091 25.6413C58.2683 25.7947 58.0375 25.8985 57.9428 26.1C57.8955 26.163 57.7276 26.3353 57.5786 26.4882C56.8949 27.1897 56.2229 27.9183 55.9844 28.5531C55.4372 28.3032 54.5361 27.4168 53.593 25.1679C52.8313 23.3514 51.2587 21.8352 50.0903 20.8927C50.9299 20.3392 52.3786 19.0319 52.2977 16.6357C52.2811 16.1443 52.2028 15.4521 52.1122 14.6502C51.6116 10.2198 50.6796 1.973 56.7478 0.987193C64.0622 -0.200548 66.6854 2.83403 68.4214 4.84254L68.4531 4.87907C70.047 6.72274 69.8132 10.7029 69.704 11.3588ZM27.3553 69.0194C27.2845 69.0136 27.2005 69.0016 27.1448 68.9935C26.8804 68.9554 26.5819 68.9126 26.4015 69.1342C26.2395 69.2598 25.5867 69.4969 25.4089 69.4761C25.0883 69.4365 24.6913 69.6309 24.233 69.857C24.0239 69.9601 23.8075 70.0668 23.6324 70.1299C23.3383 70.2356 22.6569 69.7666 22.5811 69.5779C22.565 69.5131 22.588 69.4515 22.6582 69.2923C22.7249 69.1407 22.808 68.9522 22.8426 68.698C22.8764 68.4509 22.746 68.0525 22.4477 67.1751C22.1377 66.2629 21.6189 64.7362 21.7724 64.2214C22.1043 63.1065 21.961 60.8841 21.7837 59.6621C21.6135 58.4899 20.5661 55.9875 19.8729 54.3316C19.7628 54.0685 19.663 53.83 19.5793 53.6267C19.0172 52.2617 17.7433 47.2915 17.7433 45.5068C17.7433 44.227 17.3471 42.5448 17.0578 41.3165C16.9325 40.7846 16.8243 40.3254 16.787 40.0578C16.7269 39.6267 16.8132 39.5004 17.2821 38.9016C17.5233 38.5934 17.8537 38.1714 18.2565 37.5524C19.2143 36.0802 23.3879 33.0002 24.442 32.2349C26.021 34.9844 27.7085 36.975 29.3769 38.6175C28.3804 39.192 25.6842 40.7248 24.6036 41.1237C24.5157 41.1562 24.4438 41.2215 24.4031 41.3061C24.3487 41.419 24.0815 42.0056 24.161 42.4566C24.2138 42.7863 24.2433 47.0105 24.1985 47.8375C24.1586 48.576 24.3831 53.175 24.9716 55.4636C25.339 56.8925 25.4689 58.6025 25.5637 59.8511C25.6151 60.5273 25.6594 61.1114 25.7282 61.4932C25.9204 62.5604 26.421 63.3422 27.3516 64.0281C27.4979 64.1357 27.7675 64.5715 27.9292 66.2791C27.9359 66.3492 27.9414 66.4041 27.9458 66.4406C27.9255 66.6653 27.6418 67.8765 27.3553 69.0194ZM30.6599 39.8243C30.2831 41.4864 27.7303 52.6279 26.0164 57.0874C25.9307 56.4758 25.8202 55.8605 25.6719 55.2836C25.1 53.0597 24.8817 48.5935 24.9205 47.8767C24.9605 47.1375 24.9474 42.7522 24.8732 42.3316C24.8496 42.198 24.9234 41.9396 25.0002 41.7454C26.3027 41.2208 29.133 39.5955 29.9191 39.1394C30.1668 39.3736 30.414 39.6021 30.6599 39.8243ZM43.353 73.9222C42.7724 72.8192 39.147 68.6954 38.2517 68.4105C38.0649 68.3512 37.4904 68.2135 36.6207 68.0054C34.2131 67.4289 29.7682 66.3643 28.5988 65.7416C28.4853 64.7977 28.2753 63.8106 27.7806 63.446C26.9998 62.8705 26.5987 62.2482 26.4397 61.3651C26.3776 61.0198 26.3345 60.4529 26.2846 59.7963C26.2553 59.4093 26.2224 58.9785 26.1805 58.5251C27.8323 55.2726 30.6528 43.1151 31.2875 40.3264C31.3047 40.3309 31.3209 40.3381 31.3387 40.34C32.0076 40.4119 33.1212 39.4088 34.7418 37.8701C35.3362 37.3058 36.0098 36.6662 36.2336 36.5592C36.5803 36.3934 37.2892 35.8141 38.4157 34.8799C39.36 34.0965 40.6534 33.0239 41.0277 32.889L40.7827 32.2087C40.3236 32.3741 39.3647 33.1534 37.9541 34.3233C37.1378 35.0004 36.2126 35.7677 35.9217 35.907C35.61 36.056 35.1067 36.5267 34.2439 37.3459C33.5076 38.0451 32.0221 39.4554 31.5016 39.6079C29.2944 37.6477 26.9741 35.2996 24.8699 31.5249C25.5125 31.1421 26.4237 30.3734 27.3788 29.5676C28.3788 28.7241 29.4127 27.8519 30.0206 27.5335C30.782 27.1346 32.8096 25.4906 34.7704 23.9006C36.2064 22.7361 37.6912 21.532 38.0126 21.3777C38.4464 21.1698 40.3628 21.2333 42.054 21.2896C43.1108 21.3249 44.2034 21.3611 45.1653 21.3498C47.1532 21.3265 48.0907 20.8949 48.4927 20.6132C49.2721 21.1378 51.9215 23.0514 52.9263 25.4475C54.4093 28.9837 55.7967 29.3561 56.312 29.3561H56.3191C56.5588 29.6486 56.8798 31.0286 57.0749 31.8672C57.2763 32.733 57.4501 33.4807 57.6368 33.854C58.1046 34.7897 58.6429 36.5294 58.3749 37.4675C58.2874 37.7738 58.0613 38.3056 57.7994 38.9216C57.1319 40.4922 56.2176 42.6435 56.265 44.0895C56.3243 45.8984 52.4267 61.2472 51.6413 64.0525C51.433 64.7961 51.0327 65.9088 50.6088 67.0867C49.634 69.7959 48.529 72.8665 48.6436 74.3098C48.6534 74.433 48.6793 74.7603 48.0292 74.9486C46.5257 75.3828 43.6853 74.5537 43.353 73.9222Z" fill="black"/>
<path d="M58.881 8.15675C60.2301 7.78855 60.8405 9.19004 60.8659 9.2497L61.5333 8.97188C61.2386 8.26037 60.2647 7.02885 58.6902 7.45953C58.1826 7.59828 57.7947 7.91052 57.537 8.38727C56.9222 9.52505 57.2675 11.2136 57.3936 11.6035C57.482 11.8767 57.7302 12.2588 58.0176 12.7014C58.2609 13.0761 58.6682 13.7032 58.6791 13.8811C58.6544 14.2395 58.8878 14.6555 59.2738 14.9414C59.5283 15.1298 59.8023 15.2274 60.0618 15.2274C60.1812 15.2274 60.2975 15.2067 60.4075 15.1647C61.0482 14.9195 61.112 14.1443 61.0486 13.7249L60.3338 13.833C60.3504 13.9427 60.3697 14.405 60.1493 14.4894C60.0391 14.5314 59.8685 14.4822 59.704 14.3604C59.4998 14.2091 59.3948 14.0105 59.4003 13.9309C59.4257 13.5629 59.1218 13.0743 58.6239 12.3075C58.3973 11.9588 58.1404 11.5632 58.0815 11.381C57.9528 10.9832 57.7256 9.55891 58.173 8.73109C58.3354 8.43052 58.567 8.24271 58.881 8.15675Z" fill="black"/>
<path opacity="0.5" d="M25.6504 79.729C33.6098 79.729 40.0621 73.2766 40.0621 65.3173C40.0621 57.358 33.6098 50.9056 25.6504 50.9056C17.6911 50.9056 11.2388 57.358 11.2388 65.3173C11.2388 73.2766 17.6911 79.729 25.6504 79.729Z" fill="#FF0000"/>
</g>
<defs>
<clipPath id="clip0_16_280">
<rect width="80" height="80" fill="white" transform="translate(0.25)"/>
</clipPath>
</defs>
</svg>
