<svg width="81" height="80" viewBox="0 0 81 80" fill="none" xmlns="http://www.w3.org/2000/svg">
<path d="M40.2496 70.7785C55.9652 70.7785 68.7052 58.0384 68.7052 42.3228C68.7052 26.6072 55.9652 13.8672 40.2496 13.8672C24.534 13.8672 11.7939 26.6072 11.7939 42.3228C11.7939 58.0384 24.534 70.7785 40.2496 70.7785Z" fill="#CFE8FF"/>
<path d="M62.6832 74.5351C62.4527 74.1306 62.2861 73.8384 62.2292 73.6169C62.0887 73.0714 61.8683 72.438 61.613 71.7045C61.0036 69.9542 60.2454 67.7757 59.9773 65.1225C59.6091 61.4775 58.0968 57.0607 56.5342 55.067C55.4105 53.6331 54.5097 51.9382 54.3908 51.6207C54.287 51.3436 54.2215 50.4038 54.1927 49.8957C51.883 49.0419 48.4493 47.8282 47.9152 47.7918C47.9028 47.791 47.8869 47.7914 47.8734 47.791C47.8083 49.1322 47.7936 50.6196 47.8837 50.8644C47.9185 50.9334 47.9758 51.0695 48.0622 51.2755C48.4416 52.1787 49.33 54.2938 50.3619 55.3481C51.0477 56.0489 51.591 57.5483 52.2788 59.4469C52.9682 61.3498 53.7496 63.5065 54.8467 65.2734C56.945 68.6523 57.9588 73.1368 57.3574 73.8239C56.7455 74.5232 53.5672 74.6202 53.5359 74.6202C53.0261 74.6202 52.4819 74.7032 52.2589 74.7729C52.2103 74.8672 52.1198 74.9348 52.0137 74.954C51.6208 75.0249 51.1816 75.2039 51.1267 75.3154C51.0952 75.4442 50.9945 75.537 50.8648 75.5645C50.5389 75.6332 50.1803 75.7555 50.0545 75.8375C50.0229 75.965 49.9193 76.0685 49.782 76.0938C49.6225 76.124 49.43 76.1989 49.366 76.2536C49.3596 76.333 49.3261 76.4081 49.27 76.4659C49.2032 76.5349 49.1079 76.5741 49.0142 76.5706C49.013 76.5708 49.0117 76.5708 49.0102 76.5709C49.0142 76.6107 49.0176 76.6479 49.0211 76.6877C49.0663 77.1902 49.1474 77.582 49.7359 77.6754C50.628 77.8179 51.2818 77.5663 51.2882 77.5638C51.3933 77.5223 51.5139 77.535 51.6078 77.5978C51.6131 77.6013 52.2702 78.0236 53.143 77.937C54.044 77.8452 56.5623 77.6561 57.0086 77.7116C57.1567 77.7302 57.6395 77.8516 58.5518 78.0825C59.7536 78.3868 61.7654 78.8963 62.1297 78.8963L62.1963 78.8965C62.598 78.8968 63.3468 78.9003 63.6988 78.5042C63.8815 78.2986 63.9485 77.9835 63.898 77.5678C63.7587 76.4222 63.1115 75.2866 62.6832 74.5351Z" fill="white"/>
<path d="M62.7702 24.948L62.7605 24.877C62.7027 24.8895 62.6356 24.8969 62.5586 24.8994C62.6039 24.9316 62.6757 24.9617 62.7702 24.948Z" fill="white"/>
<path d="M54.7585 20.2235C54.1467 20.913 53.5922 21.5382 53.209 21.9742C54.3572 22.1722 56.1067 22.6499 57.8098 23.1152C59.4556 23.5648 61.6411 24.1617 62.3983 24.2111C62.2986 23.6223 62.4369 22.7117 62.6488 21.4709C62.7658 20.786 62.926 19.8481 62.8519 19.6258C62.6152 18.9157 61.9549 15.6968 62.1521 13.4114C62.307 11.613 62.0569 10.9441 61.4527 9.32793C61.3474 9.04634 61.2324 8.73847 61.1079 8.39372C60.6884 7.23056 59.8825 5.49761 59.1934 4.07812C59.2498 4.35499 59.2824 4.52083 59.2836 4.52705C59.3077 4.65017 59.2631 4.77648 59.1673 4.85731C59.0714 4.93799 58.9396 4.96039 58.822 4.91558C58.8185 4.91424 58.7225 4.87887 58.5495 4.83285C58.877 6.04162 59.7267 9.29434 59.821 10.8378C59.8583 11.4464 59.949 11.9047 60.029 12.3091C60.1912 13.1282 60.3083 13.7199 59.716 14.5195C59.1971 15.22 56.6318 18.1118 54.7585 20.2235Z" fill="white"/>
<path d="M41.455 36.3184C41.2236 36.7267 40.9068 36.7992 40.7111 36.7992C40.6938 36.7992 40.6774 36.7987 40.6621 36.7977C40.6495 36.797 40.6375 36.7938 40.625 36.7925C40.7066 37.2625 40.754 37.692 40.796 38.0804C40.8649 38.7148 40.9213 39.2366 41.1008 39.6211C42.5014 39.3118 49.1553 37.867 50.5739 37.8867C50.5832 37.8869 50.5928 37.8871 50.6025 37.8871C52.1779 37.8871 61.6887 35.7034 62.3242 30.2762C62.8138 26.0931 62.6067 25.1054 62.5308 24.8998C62.5215 24.9 62.5132 24.9007 62.5035 24.9007C61.8676 24.9007 60.5637 24.5827 57.6279 23.7807C55.6948 23.2527 53.7012 22.7083 52.6672 22.5918C52.0448 23.2539 50.7155 24.285 49.533 25.2021C48.7917 25.7769 48.0918 26.3197 47.854 26.5575C47.6234 26.7881 47.3405 27.0369 47.0667 27.2774C46.7573 27.5492 46.2955 27.9551 46.2045 28.1083C46.1515 28.6904 45.4714 31.9578 44.1974 33.1182C44.1963 33.7479 44.127 35.746 43.3096 36.4646C43.0556 36.688 42.7015 36.7631 42.4076 36.6551C42.1585 36.5637 41.9928 36.3558 41.9529 36.0849C41.9215 35.8728 41.9234 35.599 41.9424 35.3024C41.747 35.7367 41.5648 36.1246 41.455 36.3184Z" fill="white"/>
<path d="M39.8086 12.9203L40.7567 12.8286C40.5035 11.5901 40.3011 10.6427 40.2958 10.6181L40.9705 10.4736C41.0276 10.741 42.3724 17.0368 42.4585 18.442C42.5073 19.2407 43.4914 20.5188 44.2098 21.4518C44.5337 21.8725 44.7695 22.1821 44.9253 22.4261C46.3346 20.7386 48.1542 18.4659 49.8829 16.2479C52.0446 13.4741 52.9122 11.6021 52.7076 11.3174C52.1768 10.8152 51.4693 9.62806 51.1012 8.9773C51.1004 8.97865 51.0985 8.98201 51.0982 8.98244C51.0361 9.08889 50.9222 9.15356 50.8004 9.15356C50.7908 9.15356 50.7814 9.15321 50.7718 9.15238C50.6394 9.14143 50.5251 9.05538 50.4779 8.93109C50.4617 8.88882 48.8588 4.68042 48.0632 3.47338L48.6391 3.09376C49.2879 4.07798 50.3822 6.78882 50.8732 8.04151C51.6294 6.88702 53.418 4.43606 55.1754 4.08457C56.6302 3.79389 57.8279 3.95607 58.4956 4.10782C58.3348 3.32251 58.0188 1.82454 57.6747 0.436523C48.1994 1.94841 42.2864 5.10221 39.8232 7.51998C39.8517 7.81969 39.8912 8.11608 39.9465 8.40093C40.2603 10.0145 39.9708 12.0252 39.8086 12.9203Z" fill="white"/>
<path d="M47.9619 47.1039C48.726 47.156 53.14 48.7711 54.5067 49.2767C54.9159 47.8967 56.366 43.024 56.6013 42.47C56.7236 42.1813 56.9058 41.0601 57.0388 40.2415C57.3048 38.6046 57.3411 38.4926 57.503 38.371C57.5037 38.3707 57.5175 38.3604 57.518 38.3599C57.9289 38.0554 59.7545 36.6191 60.4802 34.668C59.4281 35.5671 58.1976 36.2601 57.0787 36.7721C54.3856 38.0044 51.4496 38.5879 50.5612 38.5772C50.5504 38.5768 50.5393 38.5768 50.5277 38.5768C49.8103 38.5768 47.6714 38.9616 45.4588 39.4057C45.4025 40.5623 45.1262 46.1603 44.9971 47.4162C45.3184 47.4264 46.0103 47.323 46.4515 47.2563C47.0495 47.1659 47.6139 47.0807 47.9619 47.1039Z" fill="white"/>
<path d="M40.8846 13.5088C40.8545 14.4912 40.7103 17.5193 40.0605 18.8686C39.7311 19.5532 39.3993 20.989 39.0786 22.3776C38.7879 23.636 38.509 24.8416 38.2061 25.6617C38.2557 25.6436 38.3049 25.6255 38.3501 25.6088C38.7278 25.4694 39.1559 25.3112 39.4966 25.2861C39.6477 25.2749 39.8744 25.2794 40.1615 25.2851C40.5078 25.2921 40.9724 25.3011 41.4132 25.2777C41.6745 24.8353 42.751 22.9193 43.4738 21.6266C42.6978 20.6138 41.8265 19.417 41.7694 18.4838C41.7235 17.7353 41.2822 15.4307 40.8942 13.5078L40.8846 13.5088Z" fill="white"/>
<path d="M42.2754 25.1636C42.3565 25.142 42.4302 25.117 42.4942 25.088C42.7151 24.9759 43.4442 24.1784 44.4515 22.9895C44.3816 22.831 44.1744 22.5428 43.9315 22.2227C43.5807 22.8496 42.7505 24.3308 42.2754 25.1636Z" fill="white"/>
<path d="M33.8311 27.6821C34.0121 27.4899 34.5647 27.1174 35.0156 26.9251C35.0137 26.868 35.0175 26.8118 35.0279 26.758C35.0374 26.7089 35.0517 26.6616 35.0698 26.6162C34.7971 26.6257 34.4849 26.6599 34.3044 26.6798C33.9753 26.716 33.7119 26.7453 33.5276 26.7255C33.4699 26.7824 33.3897 26.9646 33.3451 27.066C33.2543 27.2725 33.1758 27.4508 33.0158 27.5536C32.6936 27.7607 32.492 27.9909 32.4835 28.094C32.4821 28.1092 32.503 28.1316 32.5207 28.1477C32.7563 28.3628 33.6087 27.9187 33.8311 27.6821Z" fill="white"/>
<path d="M36.6977 33.1529C36.7917 32.7145 37.0886 31.8513 37.4029 30.9373C37.7634 29.889 38.3003 28.3274 38.3153 27.9222C38.1634 27.8656 37.7196 27.8797 37.4177 27.8897C36.9096 27.9059 36.3336 27.9247 35.8556 27.7843C35.638 27.7203 35.4705 27.6332 35.3438 27.5332C35.0518 27.6473 34.5 27.9784 34.3338 28.1549C34.1374 28.3636 33.3802 28.8953 32.7086 28.8953C32.4708 28.8953 32.2439 28.8286 32.0561 28.6575C31.9819 28.5898 31.9292 28.5202 31.8898 28.4513C31.1752 28.7179 29.3196 29.5359 28.1058 31.2066C26.8004 33.0035 28.2255 36.4393 28.6939 37.5684C28.7698 37.7511 28.8246 37.8833 28.8556 37.9738C28.8837 38.0647 31.3138 46.003 32.286 48.3922C32.5472 49.0342 32.8768 49.7648 33.1955 50.4713C34.3633 53.0604 35.0528 54.6925 34.7823 55.5263C34.4232 56.6335 34.2066 57.0636 33.1872 57.5414C32.3906 57.9148 29.0304 59.4127 27.8459 59.7384C27.5432 59.8216 27.2372 59.8824 26.9412 59.9414C26.3504 60.0588 25.6807 60.192 25.687 60.4333C25.6918 60.6192 25.5485 60.7755 25.3629 60.7866C25.3639 60.7866 25.1618 60.8097 25.1448 60.9069C25.1085 61.1149 25.1246 61.2643 25.143 61.3279C25.2998 61.4174 25.3513 61.58 25.3806 61.6727C25.4219 61.8027 25.4446 61.8744 25.6839 61.9229C25.8185 61.9502 25.9241 62.0547 25.9527 62.189C25.9586 62.2057 26.0511 62.4599 26.6202 62.4077C26.73 62.3965 26.8403 62.4413 26.9132 62.5257C26.9723 62.5943 27.0015 62.6825 26.9964 62.7713C27.0309 62.7906 27.1298 62.8302 27.3587 62.8302C28.1235 62.8302 29.569 62.8658 30.3885 62.9447C31.095 63.0143 34.4876 62.4478 34.862 62.3667C34.8936 62.3598 38.2554 61.7108 39.1291 61.8347C39.4626 61.881 40.1642 61.7077 40.6122 61.2584C40.9019 60.9679 41.0201 60.6211 40.9635 60.2275C40.845 59.4036 40.5408 58.7744 40.2466 58.1659C40.0511 57.7616 39.8488 57.3434 39.7117 56.8851C39.3833 55.787 38.4285 51.9071 38.3879 51.7423C37.9509 49.9615 37.895 48.5507 37.8301 46.9172C37.7794 45.6398 37.722 44.1917 37.4761 42.2619C37.0035 38.5516 35.3345 36.2706 34.8938 35.7241C34.4111 35.8073 34.1195 35.8866 34.1135 35.8883L33.9281 35.2239C33.978 35.21 35.0796 34.9079 36.6307 34.8523C36.5526 34.3247 36.5798 33.7033 36.6977 33.1529Z" fill="url(#paint0_linear_39_40)"/>
<path d="M60.75 34C57.55 35.2 48.4167 35.1667 44.25 35H43.75V33L44.75 31.5L45.75 28.5L46.25 26.5C46.25 26.5 48.2997 24.9876 50.25 24.5C52.25 24 53.75 22.5 53.75 22.5L56.75 23L62.75 24.5C63.25 26.5 62.75 31 62.25 32C61.85 32.8 61.0833 33.6667 60.75 34Z" fill="#FF6D6D"/>
<path d="M27 60.9999C37.5 57.9999 36.0718 54.6664 35.0718 51.9997C34.7384 50.4997 33.419 45.0057 30.5 38C26.75 29 34.033 30.3511 37.25 30C40.6667 30 53.75 29.8 55.75 29C58.9642 27.7143 58.25 26.5 58.75 23.5" stroke="url(#paint1_linear_39_40)" stroke-width="0.5"/>
<path d="M29.75 62C37.8874 59.5677 37.8848 55.2569 37.25 52.5C36.914 51.0405 35.698 45.6271 33.2785 38.6217C30.7581 31.3243 34.0068 32.8416 37.25 32.5C40.5023 32.6622 49.7417 32.8453 54.25 32C62.5361 30.4463 60.0779 25.7973 60.75 24.5" stroke="url(#paint2_linear_39_40)" stroke-width="0.5"/>
<path d="M42.7778 25.7172C42.1196 26.0148 40.9801 25.9921 40.1476 25.9756C39.8893 25.9702 39.6661 25.9661 39.5476 25.9747C39.3035 25.9927 38.9073 26.1391 38.5889 26.2567C38.2524 26.3809 38.0379 26.4576 37.8742 26.4685C37.794 26.4739 37.5168 26.5327 37.2723 26.5844C36.5696 26.7333 36.0503 26.8362 35.7678 26.8096C35.7515 26.8131 35.7069 26.8547 35.7042 26.8966C35.7013 26.9438 35.7926 27.0469 36.0499 27.1225C36.4215 27.2318 36.9387 27.2151 37.3949 27.2003C38.1278 27.1764 38.8185 27.1543 38.9794 27.6973C39.085 28.0538 38.8411 28.875 38.0548 31.1618C37.7474 32.0556 37.4572 32.8997 37.372 33.2975C37.1438 34.3631 37.3781 35.285 37.5381 35.3889C37.7418 35.4957 37.9704 35.306 38.0388 35.2331C38.1452 34.9793 38.5366 33.491 38.8642 32.1558L39.5341 32.3202C39.2068 33.6546 38.9969 34.443 38.8599 34.9141L38.8684 34.915C38.8673 34.9257 38.782 36.0007 39.3438 36.1149C39.6567 36.1788 39.8238 36.135 39.882 36.0787C39.6822 34.2429 40.6622 32.1478 40.7053 32.0571L41.3287 32.3523C41.319 32.373 40.3705 34.404 40.5731 36.0521C40.6098 36.0812 40.6701 36.1139 40.7184 36.1099C40.7747 36.106 40.828 36.0262 40.8547 35.979C41.1639 35.4335 42.1558 33.0774 42.1658 33.0536C42.2139 32.9391 42.3199 32.8594 42.4433 32.8448C42.5669 32.8306 42.6884 32.8833 42.7618 32.9832C42.8843 33.15 42.864 33.3499 42.7583 34.1697C42.6813 34.7659 42.5759 35.5827 42.6352 35.9849C42.6372 35.9987 42.6402 36.006 42.6414 36.0075C42.6638 36.0233 42.7727 36.0188 42.8541 35.9472C43.3668 35.4963 43.5259 33.8801 43.5059 32.9672C43.5035 32.8571 43.5539 32.7523 43.6413 32.6855C44.756 31.8331 45.5077 28.506 45.5188 28.0712C45.4957 27.7549 45.8369 27.4401 46.6111 26.7597C46.8767 26.5265 47.1512 26.2851 47.3661 26.0704C47.6346 25.8019 48.2857 25.2969 49.1099 24.6577C50.2893 23.7431 51.7571 22.6047 52.2649 22.0085C52.5542 21.6688 53.2991 20.8293 54.2421 19.7662C56.1068 17.6644 58.6605 14.7856 59.1612 14.1096C59.5721 13.5552 59.503 13.2069 59.352 12.4438C59.272 12.0391 59.1723 11.5355 59.1322 10.8806C59.0323 9.24794 57.9966 5.42405 57.7929 4.6841C57.1684 4.5977 56.3019 4.56271 55.3101 4.76133C53.8614 5.05121 52.2644 7.19961 51.5214 8.31478C51.7491 8.73127 52.6157 10.2819 53.182 10.8177C54.0416 11.6308 52.1579 14.4503 50.4262 16.6724C48.4048 19.266 43.6126 25.3396 42.7778 25.7172Z" fill="white"/>
<path d="M22.2852 64.0195H43.947V79.3112H22.2852V64.0195Z" fill="white"/>
<path d="M63.282 74.1928C63.1013 73.8757 62.9305 73.5763 62.8965 73.4441C62.749 72.8709 62.5241 72.2249 62.2638 71.477C61.6664 69.7608 60.9228 67.6248 60.6631 65.0524C60.2837 61.2959 58.7082 56.7227 57.0765 54.6409C55.9955 53.2614 55.1332 51.637 55.0362 51.3778C54.9884 51.2484 54.9303 50.6411 54.8917 50.0325C54.9742 49.9892 55.0363 49.9148 55.0628 49.8253C55.5958 48.0219 57.0255 43.2337 57.2357 42.7384C57.3795 42.3992 57.5269 41.535 57.7192 40.3511C57.8113 39.7845 57.9238 39.0913 57.9868 38.8693C58.6177 38.3912 61.0639 36.3831 61.4241 33.7414C62.2522 32.7985 62.8542 31.6768 63.0088 30.3559C63.5084 26.0883 63.3123 24.9277 63.1337 24.5552C63.163 24.4571 63.161 24.3494 63.1171 24.2439C62.9449 23.8306 63.1663 22.5338 63.3282 21.5868C63.518 20.4749 63.6283 19.7748 63.5057 19.4071C63.2876 18.7527 62.653 15.6223 62.8386 13.4703C63.007 11.5168 62.7033 10.7044 62.0982 9.08606C61.9938 8.80666 61.8796 8.50132 61.7563 8.15927C60.9401 5.89663 58.7791 1.69144 58.6 1.34399C58.4967 0.897284 58.3873 0.440424 58.2756 0L57.607 0.169423C57.6294 0.257618 57.6516 0.346538 57.6738 0.435871C58.0178 1.82389 58.3338 3.32186 58.4946 4.10717C57.827 3.95542 56.6292 3.79324 55.1744 4.08392C53.417 4.43541 51.6284 6.88637 50.8722 8.04086C50.3813 6.78817 49.2869 4.07735 48.6382 3.09311L48.0622 3.47273C48.8578 4.67976 50.4608 8.88816 50.4769 8.93043C50.5241 9.05472 50.6385 9.14078 50.7708 9.15173C50.7804 9.15258 50.7899 9.1529 50.7995 9.1529C50.9212 9.1529 51.0351 9.08823 51.0972 8.98179C51.0975 8.98138 51.0995 8.978 51.1003 8.97665C51.4683 9.62741 52.1758 10.8145 52.7066 11.3167C52.9113 11.6015 52.0436 13.4735 49.882 16.2473C48.1532 18.4652 46.3336 20.7379 44.9244 22.4255C44.7685 22.1815 44.5327 21.8719 44.2088 21.4512C43.4904 20.5181 42.5063 19.24 42.4575 18.4414C42.3714 17.0361 41.0266 10.7404 40.9695 10.4729L40.2948 10.6174C40.3002 10.6421 40.5025 11.5894 40.7558 12.828L39.8076 12.9197C39.9698 12.0246 40.2593 10.0138 39.9455 8.40023C39.8903 8.11539 39.8507 7.81901 39.8222 7.51927C39.8175 7.46933 39.8102 7.42033 39.8063 7.37018L39.1185 7.42475C39.1484 7.80166 39.199 8.1742 39.2685 8.53192C39.6483 10.4861 39.0487 13.205 39.0427 13.2323C39.0184 13.3402 39.0474 13.4531 39.1206 13.5361C39.1865 13.6105 39.2808 13.6526 39.3791 13.6526C39.3901 13.6526 39.4012 13.6521 39.4123 13.6509L40.1912 13.5755C40.1552 14.6008 40.0069 17.389 39.4386 18.5692C39.0757 19.3228 38.7504 20.731 38.406 22.222C38.0843 23.6147 37.723 25.1767 37.3741 25.857C37.3012 25.8721 37.2198 25.8892 37.1289 25.9084C36.7913 25.9801 36.266 26.0918 35.9801 26.1178C35.6417 25.8642 35.038 25.904 34.2285 25.9931C33.9787 26.0208 33.6946 26.0521 33.5952 26.0379C33.0738 25.9667 32.8483 26.4802 32.7132 26.7872C32.6842 26.8529 32.6421 26.9487 32.6165 26.9892C32.3873 27.1395 32.0551 27.3982 31.8916 27.7171C31.3745 27.8849 29.051 28.73 27.5469 30.8001C26.0143 32.9097 27.4975 36.4855 28.056 37.8317C28.1244 37.9964 28.1783 38.1266 28.1988 38.1855C28.2988 38.5129 30.6624 46.2335 31.6463 48.6512C31.9124 49.3052 32.2447 50.0417 32.566 50.7541C33.3533 52.4996 34.3332 54.672 34.1254 55.3124C33.7973 56.3241 33.6658 56.554 32.8937 56.9158C31.8723 57.3944 28.7168 58.7823 27.6622 59.0722C27.3835 59.149 27.0898 59.2072 26.8058 59.2638C26.025 59.4189 25.2212 59.5788 25.0359 60.1554C24.7899 60.2406 24.5273 60.4281 24.4647 60.7871C24.3916 61.2043 24.4284 61.6875 24.7244 61.8864C24.7754 62.0471 24.8889 62.3876 25.363 62.549C25.5045 62.7972 25.8154 63.0722 26.3809 63.1009C26.3971 63.13 26.4161 63.1588 26.4382 63.1869C26.4804 63.2407 26.531 63.2877 26.5893 63.3285H21.9396C21.7492 63.3285 21.5947 63.483 21.5947 63.6735V79.655C21.5947 79.8455 21.7492 79.9999 21.9396 79.9999H44.2912C44.4817 79.9999 44.6361 79.8455 44.6361 79.655V63.6735C44.6361 63.483 44.4817 63.3285 44.2912 63.3285H33.2865C34.1443 63.1975 34.8762 63.0684 35.0071 63.04C35.5039 62.9326 38.3975 62.4273 39.0321 62.5168C39.5921 62.5963 40.5179 62.328 41.1001 61.7444C41.5449 61.2985 41.7335 60.7396 41.6456 60.1283C41.5119 59.1986 41.1691 58.4899 40.8668 57.8646C40.6747 57.4671 40.4933 57.0917 40.3718 56.6864C40.0483 55.6046 39.067 51.6167 39.0572 51.5768C38.6367 49.8636 38.5846 48.5508 38.5188 46.8889C38.4676 45.5973 38.4095 44.1333 38.1599 42.1736C37.7258 38.7665 36.3579 36.5369 35.6802 35.6122C36.0224 35.5744 36.4073 35.5455 36.8218 35.5359C36.9205 35.7478 37.0506 35.9112 37.2162 35.9979C37.3673 36.0771 37.5191 36.1099 37.6649 36.1099C37.8993 36.1099 38.1169 36.024 38.2927 35.91C38.4316 36.3236 38.7058 36.6882 39.2061 36.7898C39.355 36.8202 39.4936 36.8351 39.6219 36.8351C39.7307 36.8351 39.8303 36.822 39.924 36.8003C40.0141 37.2923 40.0658 37.7472 40.1098 38.1542C40.2016 39.001 40.274 39.6698 40.6428 40.2073C40.708 40.3023 40.8151 40.3571 40.9273 40.3571C40.9522 40.3571 40.9773 40.3544 41.0024 40.3488C42.0054 40.1251 43.3698 39.8306 44.7606 39.546C44.6132 42.5598 44.3687 47.1358 44.2931 47.4878C44.2601 47.6419 44.3013 47.7942 44.4062 47.9057C44.6735 48.1898 45.2369 48.1367 46.5542 47.9373C46.7661 47.9052 46.9802 47.8731 47.1792 47.8468C47.1204 49.0582 47.0739 50.787 47.2619 51.1632C47.2907 51.2208 47.3502 51.3624 47.4256 51.5418C47.8202 52.4814 48.7443 54.6814 49.8682 55.8297C50.4495 56.4237 50.9964 57.9332 51.6296 59.681C52.3304 61.6156 53.1248 63.8085 54.26 65.6364C56.3386 68.9837 57.0459 72.8074 56.8251 73.381C56.5194 73.6552 54.5181 73.9295 53.5353 73.9295C53.3769 73.9295 52.0791 73.9412 51.7047 74.3127C51.3654 74.3917 50.801 74.5712 50.5576 74.9254C49.8739 75.0881 49.5776 75.2886 49.4535 75.4621C49.1569 75.547 48.8802 75.6986 48.7517 75.9246C48.6571 75.9567 48.5547 76.0118 48.47 76.1058C48.3841 76.2011 48.2884 76.369 48.3214 76.6271C48.326 76.6624 48.3295 76.7034 48.3335 76.7485C48.3716 77.1741 48.461 78.1708 49.627 78.356C50.4372 78.4845 51.0841 78.3449 51.3762 78.2595C51.669 78.4153 52.3531 78.7102 53.2121 78.6223C54.3878 78.5027 56.6212 78.3584 56.9224 78.3953C57.0349 78.4094 57.7197 78.5827 58.3819 78.7505C60.2499 79.2235 61.7119 79.5853 62.129 79.5853L62.1935 79.5855C62.2208 79.5855 62.2494 79.5856 62.2793 79.5856C62.8051 79.5856 63.6852 79.5565 64.2137 78.9616C64.5337 78.6016 64.6576 78.1042 64.5822 77.4838C64.4261 76.2004 63.7376 74.9923 63.282 74.1928ZM63.6982 78.5035C63.3462 78.8996 62.5974 78.896 62.1957 78.8957L62.129 78.8955C61.7648 78.8955 59.753 78.3861 58.5512 78.0817C57.6389 77.8508 57.156 77.7294 57.008 77.7109C56.5617 77.6553 54.0434 77.8444 53.1423 77.9362C52.2696 78.0228 51.6125 77.6006 51.6072 77.597C51.5133 77.5342 51.3927 77.5216 51.2876 77.563C51.2812 77.5655 50.6274 77.8171 49.7353 77.6747C49.1468 77.5812 49.0657 77.1894 49.0205 76.6869C49.017 76.6472 49.0136 76.6099 49.0096 76.5702C49.0111 76.57 49.0124 76.57 49.0136 76.5698C49.1072 76.5734 49.2026 76.5341 49.2694 76.4651C49.3255 76.4073 49.359 76.3322 49.3654 76.2529C49.4294 76.1981 49.6219 76.1232 49.7814 76.093C49.9187 76.0678 50.0222 75.9642 50.0539 75.8367C50.1797 75.7547 50.5383 75.6324 50.8642 75.5637C50.9938 75.5363 51.0945 75.4435 51.126 75.3146C51.181 75.2031 51.6202 75.0241 52.0131 74.9532C52.1192 74.934 52.2096 74.8665 52.2583 74.7722C52.4813 74.7024 53.0255 74.6194 53.5353 74.6194C53.5666 74.6194 56.7449 74.5224 57.3568 73.8231C57.9582 73.136 56.9443 68.6516 54.846 65.2726C53.749 63.5058 52.9675 61.349 52.2782 59.4461C51.5904 57.5475 51.0471 56.0481 50.3613 55.3473C49.3294 54.2931 48.441 52.1779 48.0616 51.2747C47.9752 51.0687 47.9179 50.9327 47.883 50.8636C47.7929 50.6188 47.8077 49.1314 47.8728 47.7902C47.8863 47.7906 47.9022 47.7902 47.9145 47.791C48.4487 47.8275 51.8823 49.0411 54.1921 49.895C54.2209 50.403 54.2864 51.3429 54.3902 51.6199C54.5091 51.9374 55.4099 53.6324 56.5336 55.0663C58.0961 57.06 59.6085 61.4767 59.9767 65.1217C60.2448 67.775 61.003 69.9534 61.6124 71.7038C61.8677 72.4372 62.0881 73.0706 62.2286 73.6161C62.2855 73.8376 62.4521 74.1298 62.6826 74.5343C63.1109 75.2858 63.7581 76.4215 63.8974 77.567C63.9479 77.9827 63.8809 78.2978 63.6982 78.5035ZM44.9965 47.4151C45.1257 46.1593 45.402 40.5613 45.4583 39.4047C47.6709 38.9606 49.8097 38.5758 50.5272 38.5758C50.5388 38.5758 50.5499 38.5758 50.5607 38.5761C51.4491 38.5869 54.3851 38.0034 57.0782 36.7711C58.197 36.259 59.4275 35.566 60.4796 34.6669C59.754 36.618 57.9284 38.0543 57.5174 38.3589C57.5169 38.3594 57.5031 38.3697 57.5024 38.37C57.3406 38.4916 57.3042 38.6036 57.0383 40.2404C56.9052 41.0591 56.723 42.1803 56.6007 42.4689C56.3655 43.023 54.9154 47.8956 54.5061 49.2757C53.1394 48.7701 48.7254 47.1549 47.9613 47.1029C47.6134 47.0797 47.049 47.1649 46.451 47.2553C46.0097 47.322 45.3179 47.4254 44.9965 47.4151ZM41.9524 36.0844C41.9923 36.3554 42.158 36.5632 42.4071 36.6547C42.701 36.7626 43.0552 36.6875 43.3092 36.4642C44.1265 35.7456 44.1959 33.7475 44.1969 33.1178C45.471 31.9574 46.151 28.6899 46.2041 28.1079C46.295 27.9546 46.7568 27.5487 47.0662 27.2769C47.34 27.0364 47.623 26.7877 47.8535 26.5571C48.0913 26.3193 48.7913 25.7765 49.5325 25.2017C50.7151 24.2846 52.0443 23.2535 52.6667 22.5914C53.7007 22.7078 55.6944 23.2523 57.6274 23.7802C60.5633 24.5822 61.8671 24.9002 62.5031 24.9002C62.5128 24.9002 62.521 24.8995 62.5304 24.8994C62.6063 25.105 62.8134 26.0926 62.3237 30.2757C61.6883 35.7029 52.1775 37.8866 50.6021 37.8866C50.5923 37.8866 50.5827 37.8864 50.5735 37.8863C49.1549 37.8666 42.5009 39.3114 41.1004 39.6206C40.9208 39.2361 40.8644 38.7144 40.7955 38.0799C40.7535 37.6916 40.7061 37.262 40.6245 36.792C40.637 36.7934 40.6491 36.7965 40.6616 36.7973C40.677 36.7983 40.6933 36.7988 40.7106 36.7988C40.9063 36.7988 41.2231 36.7262 41.4545 36.318C41.5643 36.1241 41.7466 35.7363 41.9419 35.3019C41.9229 35.5985 41.9211 35.8724 41.9524 36.0844ZM60.0284 12.3087C59.9484 11.9044 59.8576 11.4461 59.8204 10.8375C59.726 9.29401 58.8763 6.04131 58.5488 4.83253C58.7218 4.87854 58.8178 4.91391 58.8213 4.91526C58.9389 4.96006 59.0707 4.93766 59.1666 4.85698C59.2624 4.77613 59.307 4.64982 59.283 4.52672C59.2817 4.5205 59.2491 4.35466 59.1927 4.0778C59.8819 5.49728 60.6877 7.23023 61.1073 8.3934C61.2317 8.73814 61.3467 9.04601 61.452 9.3276C62.0563 10.9437 62.3064 11.6127 62.1514 13.411C61.9542 15.6964 62.6146 18.9154 62.8512 19.6254C62.9253 19.8477 62.7651 20.7856 62.6481 21.4706C62.4362 22.7113 62.298 23.6219 62.3977 24.2107C61.6405 24.1614 59.4549 23.5645 57.8092 23.1148C56.106 22.6496 54.3566 22.1718 53.2083 21.9739C53.5915 21.5379 54.1461 20.9127 54.7578 20.2231C56.6311 18.1115 59.1964 15.2196 59.7153 14.5192C60.3076 13.7196 60.1906 13.1279 60.0284 12.3087ZM62.7595 24.8761L62.7692 24.9472C62.6747 24.9609 62.6029 24.9307 62.5576 24.8986C62.6347 24.8961 62.7017 24.8887 62.7595 24.8761ZM50.4259 16.6714C52.1576 14.4493 54.0413 11.6298 53.1817 10.8167C52.6154 10.2809 51.7488 8.73026 51.5212 8.31377C52.2641 7.1986 53.8611 5.0502 55.3099 4.76032C56.3017 4.56172 57.1681 4.59671 57.7926 4.68309C57.9964 5.42302 59.032 9.24693 59.1319 10.8796C59.172 11.5345 59.2717 12.0381 59.3517 12.4428C59.5028 13.2059 59.5718 13.5542 59.1609 14.1086C58.6602 14.7846 56.1065 17.6634 54.2418 19.7652C53.2988 20.8283 52.5539 21.6678 52.2646 22.0075C51.7568 22.6037 50.289 23.742 49.1096 24.6567C48.2854 25.2959 47.6343 25.8009 47.3658 26.0694C47.1509 26.2841 46.8764 26.5255 46.6108 26.7587C45.8366 27.4391 45.4954 27.7539 45.5185 28.0702C45.5074 28.505 44.7557 31.8321 43.641 32.6845C43.5536 32.7513 43.5032 32.8561 43.5056 32.9662C43.5256 33.879 43.3665 35.4953 42.8538 35.9462C42.7725 36.0178 42.6635 36.0223 42.6411 36.0065C42.6399 36.005 42.6369 35.9977 42.6349 35.9839C42.5756 35.5817 42.681 34.7649 42.758 34.1687C42.8638 33.3489 42.884 33.1489 42.7615 32.9822C42.6881 32.8823 42.5667 32.8296 42.443 32.8438C42.3196 32.8584 42.2137 32.9381 42.1655 33.0526C42.1556 33.0764 41.1636 35.4325 40.8544 35.978C40.8278 36.0252 40.7744 36.105 40.7181 36.1089C40.6698 36.1129 40.6095 36.0802 40.5728 36.0511C40.3702 34.403 41.3187 32.372 41.3285 32.3513L40.705 32.0561C40.662 32.1468 39.6819 34.2419 39.8817 36.0777C39.8235 36.134 39.6564 36.1777 39.3435 36.1139C38.7817 35.9997 38.8671 34.9247 38.8681 34.914L38.8596 34.9131C38.9966 34.442 39.2065 33.6536 39.5338 32.3192L38.8639 32.1548C38.5363 33.49 38.1449 34.9783 38.0385 35.2321C37.9701 35.305 37.7415 35.4947 37.5378 35.3879C37.3778 35.284 37.1435 34.3621 37.3717 33.2965C37.4569 32.8987 37.7471 32.0546 38.0545 31.1608C38.8408 28.874 39.0847 28.0528 38.9791 27.6963C38.8182 27.1533 38.1276 27.1754 37.3946 27.1993C36.9384 27.2141 36.4212 27.2308 36.0496 27.1215C35.7923 27.0459 35.701 26.9428 35.7039 26.8956C35.7066 26.8537 35.7512 26.8121 35.7675 26.8086C36.05 26.8352 36.5694 26.7323 37.272 26.5834C37.5165 26.5317 37.7938 26.4729 37.8739 26.4675C38.0376 26.4566 38.2522 26.3799 38.5887 26.2556C38.907 26.1381 39.3033 25.9917 39.5473 25.9737C39.6659 25.9651 39.889 25.9692 40.1474 25.9746C40.9798 25.9911 42.1194 26.0138 42.7775 25.7162C43.6123 25.3386 48.4044 19.265 50.4259 16.6714ZM33.9274 35.223L34.1128 35.8874C34.1187 35.8857 34.4104 35.8064 34.8931 35.7232C35.3337 36.2697 37.0028 38.5507 37.4754 42.2609C37.7213 44.1908 37.7787 45.6389 37.8294 46.9163C37.8942 48.5498 37.9501 49.9606 38.3872 51.7414C38.4278 51.9061 39.3825 55.7861 39.7109 56.8842C39.848 57.3424 40.0503 57.7606 40.2458 58.165C40.5401 58.7735 40.8442 59.4027 40.9628 60.2266C41.0194 60.6202 40.9011 60.9669 40.6115 61.2574C40.1635 61.7068 39.4619 61.8801 39.1284 61.8338C38.2546 61.7098 34.8929 62.3589 34.8612 62.3658C34.4868 62.4468 31.0942 63.0134 30.3877 62.9438C29.5682 62.8648 28.1227 62.8293 27.3579 62.8293C27.129 62.8293 27.0302 62.7897 26.9956 62.7703C27.0007 62.6816 26.9716 62.5933 26.9124 62.5248C26.8395 62.4404 26.7292 62.3956 26.6194 62.4067C26.0503 62.4589 25.9579 62.2048 25.952 62.1881C25.9233 62.0537 25.8178 61.9493 25.6832 61.922C25.4439 61.8735 25.4211 61.8018 25.3799 61.6717C25.3506 61.5791 25.299 61.4164 25.1422 61.327C25.1239 61.2633 25.1077 61.1139 25.1441 60.906C25.1611 60.8088 25.3632 60.7857 25.3622 60.7857C25.5478 60.7746 25.6911 60.6183 25.6862 60.4324C25.68 60.191 26.3496 60.0578 26.9404 59.9404C27.2365 59.8815 27.5425 59.8207 27.8451 59.7375C29.0296 59.4118 32.3899 57.9139 33.1865 57.5405C34.2059 57.0627 34.4225 56.6326 34.7815 55.5254C35.052 54.6915 34.3625 53.0594 33.1947 50.4704C32.8761 49.7638 32.5465 49.0333 32.2853 48.3913C31.313 46.0021 28.8829 38.0638 28.8548 37.9728C28.8238 37.8824 28.7691 37.7502 28.6931 37.5675C28.2248 36.4384 26.7996 33.0025 28.105 31.2057C29.3188 29.5349 31.1745 28.717 31.889 28.4504C31.9285 28.5192 31.9811 28.5889 32.0554 28.6566C32.2432 28.8277 32.47 28.8944 32.7078 28.8944C33.3795 28.8944 34.1367 28.3627 34.333 28.154C34.4992 27.9775 35.0511 27.6463 35.343 27.5323C35.4697 27.6322 35.6373 27.7193 35.8549 27.7833C36.3328 27.9238 36.9088 27.9049 37.4169 27.8887C37.7189 27.8788 38.1627 27.8647 38.3146 27.9212C38.2996 28.3265 37.7627 29.888 37.4021 30.9364C37.0878 31.8504 36.7909 32.7135 36.6969 33.1519C36.5791 33.7024 36.5519 34.3238 36.6299 34.8514C35.0789 34.907 33.9772 35.209 33.9274 35.223ZM43.9463 79.3102H22.2846V64.0185H43.9463L43.9463 79.3102ZM33.0154 27.5528C33.1754 27.45 33.2538 27.2717 33.3446 27.0652C33.3893 26.9638 33.4694 26.7816 33.5272 26.7247C33.7115 26.7445 33.9748 26.7152 34.3039 26.679C34.4844 26.6591 34.7967 26.6249 35.0694 26.6154C35.0512 26.6608 35.0369 26.7081 35.0274 26.7572C35.0171 26.811 35.0132 26.8672 35.0151 26.9243C34.5643 27.1166 34.0116 27.4891 33.8307 27.6813C33.6082 27.9179 32.7559 28.362 32.5202 28.147C32.5026 28.1308 32.4817 28.1084 32.483 28.0932C32.4916 27.9902 32.6932 27.7599 33.0154 27.5528ZM44.4504 22.9892C43.4432 24.178 42.7141 24.9755 42.4932 25.0877C42.4292 25.1166 42.3555 25.1416 42.2744 25.1632C42.7495 24.3304 43.5796 22.8492 43.9305 22.2223C44.1734 22.5425 44.3806 22.8306 44.4504 22.9892ZM43.4734 21.6264C42.7506 22.9191 41.6741 24.8351 41.4128 25.2775C40.972 25.3009 40.5074 25.2918 40.1611 25.2849C39.874 25.2792 39.6473 25.2746 39.4962 25.2859C39.1555 25.311 38.7274 25.4691 38.3496 25.6086C38.3045 25.6253 38.2553 25.6434 38.2056 25.6615C38.5085 24.8413 38.7875 23.6358 39.0782 22.3774C39.3989 20.9888 39.7306 19.553 40.0601 18.8684C40.7099 17.5191 40.854 14.4909 40.8842 13.5085L40.8938 13.5076C41.2818 15.4305 41.7231 17.7351 41.769 18.4836C41.8261 19.4168 42.6975 20.6136 43.4734 21.6264Z" fill="black"/>
<defs>
<linearGradient id="paint0_linear_39_40" x1="33.0502" y1="27.5332" x2="33.0502" y2="62.9507" gradientUnits="userSpaceOnUse">
<stop stop-color="#FF6969"/>
<stop offset="1" stop-color="#FFABAB"/>
</linearGradient>
<linearGradient id="paint1_linear_39_40" x1="33.5359" y1="29.5557" x2="33.5359" y2="60.9999" gradientUnits="userSpaceOnUse">
<stop offset="0.02" stop-color="#FF0000"/>
<stop offset="0.2" stop-color="#FF0000"/>
<stop offset="1" stop-color="#FF0000" stop-opacity="0"/>
</linearGradient>
<linearGradient id="paint2_linear_39_40" x1="37.2375" y1="31.3469" x2="37.2375" y2="61" gradientUnits="userSpaceOnUse">
<stop offset="0.02" stop-color="#FF0000"/>
<stop offset="0.2" stop-color="#FF0000"/>
<stop offset="1" stop-color="#FF0000" stop-opacity="0"/>
</linearGradient>
</defs>
</svg>
