<svg width="69" height="77" viewBox="0 0 69 77" fill="none" xmlns="http://www.w3.org/2000/svg">
<path opacity="0.1" d="M32 38.5C32 49.0821 30.2165 58.639 27.352 65.5317C25.9193 68.9792 24.226 71.7364 22.3713 73.6241C20.5183 75.51 18.5345 76.5 16.5 76.5C14.4655 76.5 12.4817 75.51 10.6287 73.6241C8.77402 71.7364 7.08073 68.9792 5.64801 65.5317C2.78349 58.639 1 49.0821 1 38.5C1 27.9179 2.78349 18.361 5.64801 11.4683C7.08073 8.02079 8.77402 5.26359 10.6287 3.37595C12.4817 1.49003 14.4655 0.5 16.5 0.5C18.5345 0.5 20.5183 1.49003 22.3713 3.37595C24.226 5.26359 25.9193 8.02079 27.352 11.4683C30.2165 18.361 32 27.9179 32 38.5Z" stroke="#06335D"/>
<path opacity="0.3" d="M44 38.5C44 49.0821 42.2165 58.639 39.352 65.5317C37.9193 68.9792 36.226 71.7364 34.3713 73.6241C32.5183 75.51 30.5345 76.5 28.5 76.5C26.4655 76.5 24.4817 75.51 22.6287 73.6241C20.774 71.7364 19.0807 68.9792 17.648 65.5317C14.7835 58.639 13 49.0821 13 38.5C13 27.9179 14.7835 18.361 17.648 11.4683C19.0807 8.02079 20.774 5.26359 22.6287 3.37595C24.4817 1.49003 26.4655 0.5 28.5 0.5C30.5345 0.5 32.5183 1.49003 34.3713 3.37595C36.226 5.26359 37.9193 8.02079 39.352 11.4683C42.2165 18.361 44 27.9179 44 38.5Z" stroke="#06335D"/>
<path opacity="0.7" d="M56 38.5C56 49.0821 54.2165 58.639 51.352 65.5317C49.9193 68.9792 48.226 71.7364 46.3713 73.6241C44.5183 75.51 42.5345 76.5 40.5 76.5C38.4655 76.5 36.4817 75.51 34.6287 73.6241C32.774 71.7364 31.0807 68.9792 29.648 65.5317C26.7835 58.639 25 49.0821 25 38.5C25 27.9179 26.7835 18.361 29.648 11.4683C31.0807 8.02079 32.774 5.26359 34.6287 3.37595C36.4817 1.49003 38.4655 0.5 40.5 0.5C42.5345 0.5 44.5183 1.49003 46.3713 3.37595C48.226 5.26359 49.9193 8.02079 51.352 11.4683C54.2165 18.361 56 27.9179 56 38.5Z" stroke="#06335D"/>
<path d="M68 38.5C68 49.0821 66.2165 58.639 63.352 65.5317C61.9193 68.9792 60.226 71.7364 58.3713 73.6241C56.5183 75.51 54.5345 76.5 52.5 76.5C50.4655 76.5 48.4817 75.51 46.6287 73.6241C44.774 71.7364 43.0807 68.9792 41.648 65.5317C38.7835 58.639 37 49.0821 37 38.5C37 27.9179 38.7835 18.361 41.648 11.4683C43.0807 8.02079 44.774 5.26359 46.6287 3.37595C48.4817 1.49003 50.4655 0.5 52.5 0.5C54.5345 0.5 56.5183 1.49003 58.3713 3.37595C60.226 5.26359 61.9193 8.02079 63.352 11.4683C66.2165 18.361 68 27.9179 68 38.5Z" stroke="#06335D"/>
</svg>
