<svg width="67" height="24" viewBox="0 0 67 24" fill="none" xmlns="http://www.w3.org/2000/svg">
<g clip-path="url(#clip0_16_186)">
<g clip-path="url(#clip1_16_186)">
<path d="M9.4893 10.7749L15.3176 4H13.9365L8.87577 9.88256L4.8338 4H0.171875L6.28412 12.8955L0.171875 20H1.55307L6.8973 13.7878L11.1659 20H15.8278L9.48896 10.7749H9.4893ZM7.59756 12.9738L6.97826 12.0881L2.05073 5.03974H4.17217L8.14874 10.728L8.76804 11.6137L13.9371 19.0075H11.8157L7.59756 12.9742V12.9738Z" fill="#0B569A"/>
</g>
<path d="M39 9.72834V14.3333C39 16.9106 36.9853 19 34.5 19C32.0147 19 30 16.9107 30 14.3333C30 12.021 31.6217 10.1015 33.75 9.73122V12.9859C33.3016 13.2549 33 13.7576 33 14.3333C33 15.1925 33.6716 15.8889 34.5 15.8889C35.3284 15.8889 36 15.1925 36 14.3333V5H39C39.375 6.55555 40.875 6.94444 42 7.33333V10.4444C41.0649 10.4444 39.9869 10.2229 39 9.72834Z" stroke="#0B569A" stroke-width="1.33333" stroke-linejoin="round"/>
<g clip-path="url(#clip2_16_186)">
<path d="M71.9841 8.70404C71.9466 7.8539 71.8091 7.26944 71.6122 6.76299C71.409 6.22541 71.0964 5.74412 70.6869 5.34401C70.2868 4.93768 69.8024 4.62195 69.271 4.42196C68.7616 4.22502 68.1802 4.08754 67.3301 4.05006C66.4736 4.0094 66.2017 4 64.0294 4C61.8571 4 61.5852 4.0094 60.7319 4.04688C59.8817 4.08437 59.2973 4.22197 58.7909 4.41878C58.2532 4.62195 57.7719 4.93451 57.3718 5.34401C56.9655 5.74412 56.6499 6.22858 56.4498 6.75994C56.2529 7.26944 56.1154 7.85073 56.0779 8.70087C56.0372 9.55736 56.0278 9.82926 56.0278 12.0016C56.0278 14.1739 56.0372 14.4458 56.0747 15.2991C56.1122 16.1492 56.2498 16.7337 56.4467 17.2401C56.6499 17.7777 56.9655 18.259 57.3718 18.6591C57.7719 19.0654 58.2564 19.3812 58.7878 19.5812C59.2973 19.7781 59.8786 19.9156 60.7288 19.9531C61.582 19.9907 61.854 20 64.0263 20C66.1986 20 66.4705 19.9907 67.3239 19.9531C68.174 19.9156 68.7585 19.7781 69.2648 19.5812C70.3401 19.1654 71.1902 18.3153 71.6059 17.2401C71.8028 16.7306 71.9404 16.1492 71.9778 15.2991C72.0153 14.4458 72.0247 14.1739 72.0247 12.0016C72.0247 9.82926 72.0216 9.55736 71.9841 8.70404ZM70.5432 15.2366C70.5088 16.018 70.3776 16.4399 70.2682 16.7212C69.9993 17.4183 69.4461 17.9715 68.7491 18.2403C68.4678 18.3497 68.0428 18.481 67.2644 18.5153C66.4205 18.5529 66.1674 18.5622 64.0326 18.5622C61.8978 18.5622 61.6415 18.5529 60.8006 18.5153C60.0192 18.481 59.5973 18.3497 59.3159 18.2403C58.9691 18.1121 58.6533 17.909 58.3971 17.6433C58.1314 17.3838 57.9282 17.0713 57.8 16.7244C57.6906 16.4431 57.5594 16.018 57.5251 15.2397C57.4875 14.3958 57.4782 14.1426 57.4782 12.0078C57.4782 9.87297 57.4875 9.6167 57.5251 8.77596C57.5594 7.99455 57.6906 7.5726 57.8 7.29129C57.9282 6.9443 58.1314 6.62869 58.4002 6.37229C58.6596 6.10661 58.9721 5.90345 59.3191 5.77537C59.6004 5.66597 60.0256 5.53472 60.8038 5.50029C61.6477 5.46281 61.9009 5.45341 64.0356 5.45341C66.1736 5.45341 66.4267 5.46281 67.2676 5.50029C68.049 5.53472 68.4709 5.66597 68.7522 5.77537C69.0991 5.90345 69.4148 6.10661 69.6711 6.37229C69.9368 6.63174 70.14 6.9443 70.2682 7.29129C70.3776 7.5726 70.5088 7.99761 70.5432 8.77596C70.5807 9.61987 70.5901 9.87297 70.5901 12.0078C70.5901 14.1426 70.5807 14.3927 70.5432 15.2366Z" fill="#0B569A"/>
<path d="M64.0296 7.8916C61.7605 7.8916 59.9194 9.73254 59.9194 12.0018C59.9194 14.271 61.7605 16.112 64.0296 16.112C66.2989 16.112 68.1398 14.271 68.1398 12.0018C68.1398 9.73254 66.2989 7.8916 64.0296 7.8916ZM64.0296 14.6679C62.5575 14.6679 61.3634 13.474 61.3634 12.0018C61.3634 10.5296 62.5575 9.33561 64.0296 9.33561C65.5018 9.33561 66.6958 10.5296 66.6958 12.0018C66.6958 13.474 65.5018 14.6679 64.0296 14.6679Z" fill="#0B569A"/>
</g>
<rect width="67" height="24" fill="url(#paint0_linear_16_186)"/>
</g>
<defs>
<linearGradient id="paint0_linear_16_186" x1="0" y1="12" x2="67" y2="12" gradientUnits="userSpaceOnUse">
<stop stop-color="white"/>
<stop offset="0.5" stop-color="#F9FBFD" stop-opacity="0"/>
<stop offset="1" stop-color="white"/>
</linearGradient>
<clipPath id="clip0_16_186">
<rect width="67" height="24" fill="white"/>
</clipPath>
<clipPath id="clip1_16_186">
<rect width="16" height="16" fill="white" transform="translate(0 4)"/>
</clipPath>
<clipPath id="clip2_16_186">
<rect width="16" height="16" fill="white" transform="translate(56 4)"/>
</clipPath>
</defs>
</svg>
