<svg width="20" height="20" viewBox="0 0 20 20" fill="none" xmlns="http://www.w3.org/2000/svg">
<path fill-rule="evenodd" clip-rule="evenodd" d="M12.7941 13.4526L14.1005 12.1998C14.2229 12.087 14.3013 11.9334 14.3229 11.767C14.3765 11.3622 14.0925 10.9886 13.6917 10.9342L11.8797 10.6782C11.7685 10.663 11.6717 10.5934 11.6213 10.491L10.8109 8.87495C10.7437 8.73975 10.6349 8.62775 10.4877 8.54535C10.1189 8.35815 9.66615 8.50615 9.47735 8.87415L8.66775 10.4902C8.61575 10.5926 8.51898 10.663 8.40698 10.6782L6.59738 10.9342C6.43258 10.9558 6.27898 11.0342 6.16218 11.1542C5.88138 11.4526 5.89018 11.9094 6.18458 12.1966L7.49258 13.451C7.57578 13.5334 7.61258 13.6438 7.59338 13.7534L7.28298 15.5326C7.25658 15.6966 7.28378 15.8598 7.36058 16.003C7.45578 16.1798 7.61258 16.3086 7.80458 16.3662C7.87498 16.387 7.94698 16.3974 8.01818 16.3974C8.13898 16.3974 8.25818 16.3678 8.36458 16.3094L9.97975 15.471C10.0821 15.4198 10.2053 15.4198 10.3061 15.4694L11.9229 16.3086C12.0605 16.3822 12.2205 16.4086 12.3901 16.3862C12.7949 16.3206 13.0717 15.9374 13.0061 15.5294L12.6949 13.7542C12.6757 13.6438 12.7125 13.5334 12.7941 13.4526Z" fill="#FF961B"/>
<path fill-rule="evenodd" clip-rule="evenodd" d="M18.1349 11.1574C18.1757 10.8582 18.0957 10.5606 17.9109 10.319C17.7261 10.0782 17.4597 9.92295 17.163 9.88295L15.3934 9.65575L14.5861 8.04455C14.4837 7.83575 14.3182 7.66295 14.0838 7.53255C13.5182 7.24775 12.8246 7.47415 12.5382 8.03975L12.1398 8.83095C11.991 9.12695 12.1102 9.48775 12.4062 9.63655C12.7014 9.78695 13.0622 9.66615 13.2118 9.37015L13.5606 8.67655L14.3206 10.1926C14.4894 10.531 14.8134 10.7638 15.1846 10.815L16.871 11.0534L15.6478 12.227C15.3798 12.4934 15.259 12.871 15.3238 13.2358L15.6133 14.895L14.7798 14.4638C14.4854 14.311 14.123 14.4262 13.971 14.7206C13.8182 15.015 13.9341 15.3766 14.2278 15.5294L15.151 16.007C15.3134 16.0926 15.4942 16.1382 15.6878 16.1382C15.7478 16.1382 15.8086 16.1334 15.8702 16.1246C16.171 16.0758 16.4358 15.9126 16.615 15.6646C16.7942 15.4166 16.8661 15.1142 16.8158 14.8062L16.4861 13.0854L17.8038 11.8222C17.9838 11.6422 18.1013 11.4062 18.1349 11.1574Z" fill="#FF961B"/>
<path fill-rule="evenodd" clip-rule="evenodd" d="M10.1086 5.62846H10.119C10.4454 5.62846 10.7134 5.36606 10.719 5.03886L10.7334 4.18286V4.17326C10.7334 3.84606 10.4718 3.57806 10.143 3.57246C9.80464 3.55086 9.53904 3.83086 9.53344 4.16206L9.51904 5.01806V5.02846C9.51824 5.35486 9.78064 5.62286 10.1086 5.62846Z" fill="#FF961B"/>
<path fill-rule="evenodd" clip-rule="evenodd" d="M12.18 6.97247C12.332 6.97247 12.484 6.91487 12.6008 6.80047L13.2104 6.20047C13.4464 5.96767 13.4496 5.58767 13.2176 5.35167C12.9848 5.11567 12.6048 5.11327 12.3688 5.34447L11.7592 5.94447C11.5232 6.17727 11.52 6.55727 11.752 6.79327C11.8696 6.91247 12.0248 6.97247 12.18 6.97247Z" fill="#FF961B"/>
<path fill-rule="evenodd" clip-rule="evenodd" d="M7.5712 6.78313C7.6896 6.92873 7.8624 7.00393 8.0368 7.00393C8.1704 7.00393 8.304 6.95993 8.4152 6.86953C8.56077 6.75113 8.63677 6.57833 8.63677 6.40393C8.63677 6.27113 8.59197 6.13673 8.5016 6.02553L7.9616 5.36153C7.752 5.10393 7.3736 5.06553 7.1176 5.27513C6.972 5.39353 6.896 5.56633 6.896 5.74073C6.896 5.87353 6.94 6.00793 7.0312 6.11913L7.5712 6.78313Z" fill="#FF961B"/>
<path fill-rule="evenodd" clip-rule="evenodd" d="M5.50874 14.4633L4.67514 14.8969L4.96394 13.2369C5.02954 12.8705 4.90874 12.4929 4.63274 12.2193L3.40474 11.0553L5.10154 10.8145C5.47514 10.7633 5.79833 10.5305 5.96713 10.1929L6.72634 8.67367L7.07674 9.36967C7.22553 9.66567 7.58714 9.78647 7.88234 9.63607C8.17833 9.48727 8.29754 9.12647 8.14874 8.83047L7.74874 8.03687C7.46394 7.47367 6.77034 7.24727 6.18154 7.54487C5.97034 7.66247 5.80474 7.83527 5.70474 8.04007L4.93594 9.62647L3.12874 9.88167C2.82874 9.92247 2.56154 10.0777 2.37674 10.3185C2.19194 10.5601 2.11274 10.8577 2.15354 11.1561C2.18634 11.4057 2.30474 11.6417 2.49274 11.8289L3.78234 13.0297L3.47194 14.8129C3.42234 15.1137 3.49434 15.4161 3.67354 15.6641C3.85274 15.9129 4.11674 16.0761 4.43354 16.1273C4.48954 16.1345 4.54554 16.1385 4.60154 16.1385C4.79034 16.1385 4.97273 16.0945 5.13194 16.0097L6.05994 15.5289C6.35434 15.3769 6.46954 15.0145 6.31754 14.7201C6.16474 14.4257 5.80393 14.3105 5.50874 14.4633Z" fill="#FF961B"/>
</svg>
